<?xml version="1.0" encoding="UTF-8"?>
<!DOCTYPE svg PUBLIC "-//W3C//DTD SVG 1.1//EN" "http://www.w3.org/Graphics/SVG/1.1/DTD/svg11.dtd">
<!-- Creator: CorelDRAW X6 -->
<svg xmlns="http://www.w3.org/2000/svg" xml:space="preserve" width="11.1111in" height="11.1111in" version="1.1" style="shape-rendering:geometricPrecision; text-rendering:geometricPrecision; image-rendering:optimizeQuality; fill-rule:evenodd; clip-rule:evenodd"
viewBox="0 0 11111 11111"
 xmlns:xlink="http://www.w3.org/1999/xlink">
 <defs>
  <style type="text/css">
   <![CDATA[
    .fil1 {fill:#96989B}
    .fil13 {fill:#282828;fill-rule:nonzero}
    .fil2 {fill:#287493;fill-rule:nonzero}
    .fil22 {fill:#2B3133;fill-rule:nonzero}
    .fil10 {fill:#332F2D;fill-rule:nonzero}
    .fil20 {fill:#383536;fill-rule:nonzero}
    .fil12 {fill:#39383D;fill-rule:nonzero}
    .fil28 {fill:#42322D;fill-rule:nonzero}
    .fil11 {fill:#484948;fill-rule:nonzero}
    .fil31 {fill:#49494D;fill-rule:nonzero}
    .fil30 {fill:#4E4E51;fill-rule:nonzero}
    .fil32 {fill:#57514D;fill-rule:nonzero}
    .fil7 {fill:#68BDC6;fill-rule:nonzero}
    .fil6 {fill:#6F85A5;fill-rule:nonzero}
    .fil26 {fill:#7EB1C2;fill-rule:nonzero}
    .fil25 {fill:#84807D;fill-rule:nonzero}
    .fil44 {fill:#8B4B33;fill-rule:nonzero}
    .fil3 {fill:#8FD2C8;fill-rule:nonzero}
    .fil39 {fill:#963233;fill-rule:nonzero}
    .fil35 {fill:#9A3A34;fill-rule:nonzero}
    .fil43 {fill:#A85D38;fill-rule:nonzero}
    .fil46 {fill:#AA6C58;fill-rule:nonzero}
    .fil23 {fill:#AB5137;fill-rule:nonzero}
    .fil36 {fill:#AB6638;fill-rule:nonzero}
    .fil38 {fill:#B76F39;fill-rule:nonzero}
    .fil16 {fill:#C07952;fill-rule:nonzero}
    .fil14 {fill:#D29E62;fill-rule:nonzero}
    .fil9 {fill:#D8717E;fill-rule:nonzero}
    .fil5 {fill:#DE607C;fill-rule:nonzero}
    .fil33 {fill:#E2E2E3;fill-rule:nonzero}
    .fil15 {fill:#E3C69D;fill-rule:nonzero}
    .fil21 {fill:#E9683F;fill-rule:nonzero}
    .fil34 {fill:#EB5B37;fill-rule:nonzero}
    .fil17 {fill:#F1613B;fill-rule:nonzero}
    .fil4 {fill:#F37755;fill-rule:nonzero}
    .fil37 {fill:#F3C89B;fill-rule:nonzero}
    .fil42 {fill:#F3F4F4;fill-rule:nonzero}
    .fil18 {fill:#F4FAF8;fill-rule:nonzero}
    .fil40 {fill:#F6E9E4;fill-rule:nonzero}
    .fil19 {fill:#F6F3D0;fill-rule:nonzero}
    .fil45 {fill:#F7EADA;fill-rule:nonzero}
    .fil24 {fill:#F8A88C;fill-rule:nonzero}
    .fil29 {fill:#F8B556;fill-rule:nonzero}
    .fil41 {fill:#F8DE5E;fill-rule:nonzero}
    .fil8 {fill:#F9BEB2;fill-rule:nonzero}
    .fil27 {fill:#FAFCFA;fill-rule:nonzero}
    .fil0 {fill:#FEFEFE;fill-rule:nonzero}
   ]]>
  </style>
 </defs>
 <g id="Layer_x0020_1">
  <metadata id="CorelCorpID_0Corel-Layer"/>
  <polygon class="fil0" points="0,11111 11111,11111 11111,0 0,0 "/>
  <path class="fil1" d="M4039 10495c0,8 1,15 4,21 3,6 6,10 10,13 4,3 9,4 15,4l0 0 0 23c-3,0 -6,1 -9,1 -7,0 -14,-2 -20,-5 -6,-3 -12,-7 -16,-13 -4,-6 -8,-12 -10,-20 -2,-8 -4,-16 -4,-25 0,-19 5,-34 14,-44 9,-11 21,-16 36,-16 3,0 6,0 9,1l0 22 0 0c-6,0 -11,2 -15,5 -4,3 -8,8 -10,14 -2,6 -4,13 -4,20zm29 38c5,0 10,-1 14,-4 4,-3 8,-7 11,-13 3,-6 4,-13 4,-21 0,-8 -1,-15 -4,-21 -3,-6 -6,-10 -11,-13 -4,-3 -9,-5 -14,-5l0 -22c5,1 9,2 13,4 6,3 12,8 18,14l0 -45c0,-6 1,-11 4,-14 2,-3 6,-5 11,-5 5,0 8,1 11,4 3,3 4,7 4,13l0 133c0,6 -1,10 -4,13 -3,3 -6,4 -10,4 -4,0 -8,-1 -10,-4 -3,-3 -4,-7 -4,-13l0 -3c-4,5 -8,8 -12,11 -4,3 -8,5 -13,7 -2,1 -4,1 -6,1l0 -23z"/>
  <path class="fil1" d="M4183 10485l27 0 0 17 -27 0c0,7 1,13 4,18 3,5 6,9 11,12 4,2 8,4 13,4l0 20c-18,-1 -32,-6 -42,-17 -11,-11 -16,-26 -16,-45 0,-9 1,-17 4,-25 3,-8 7,-14 12,-20 5,-5 11,-10 19,-13 7,-3 15,-4 24,-4l0 21 0 0c-8,0 -14,3 -19,8 -5,5 -8,13 -9,23zm27 71l0 -20 2 0c4,0 7,0 10,-1 3,-1 6,-2 9,-4 3,-2 5,-4 8,-6 2,-2 5,-5 9,-8 2,-1 4,-2 7,-2 3,0 6,1 8,3 2,2 3,4 3,7 0,3 -1,6 -3,10 -2,4 -5,7 -10,11 -4,3 -10,6 -16,8 -7,2 -14,3 -23,3l-3 0zm0 -71l27 0c-1,-10 -4,-18 -8,-23 -5,-5 -11,-8 -19,-8l0 -21 1 0c12,0 22,2 30,8 9,5 15,11 19,19 4,8 6,16 6,24 0,8 -2,13 -7,15 -4,2 -11,3 -18,3l-32 0 0 -17z"/>
  <path class="fil1" d="M4390 10517c0,8 -2,15 -6,21 -4,6 -10,11 -18,14 -8,3 -18,5 -29,5 -11,0 -20,-2 -28,-5 -8,-3 -13,-8 -17,-12 -4,-5 -6,-10 -6,-15 0,-3 1,-6 4,-9 2,-2 5,-4 9,-4 3,0 6,1 7,2 2,1 3,4 5,7 3,5 7,9 11,12 4,3 10,4 18,4 6,0 11,-1 15,-4 4,-3 6,-6 6,-9 0,-5 -2,-9 -6,-12 -4,-2 -11,-5 -20,-7 -10,-3 -19,-5 -25,-8 -7,-3 -12,-7 -16,-11 -4,-5 -6,-10 -6,-17 0,-6 2,-12 5,-17 4,-5 9,-10 16,-13 7,-3 16,-5 26,-5 8,0 15,1 21,2 6,2 11,4 16,7 4,3 7,6 9,9 2,3 3,7 3,10 0,3 -1,6 -3,9 -2,2 -6,3 -10,3 -3,0 -6,-1 -8,-3 -2,-2 -5,-4 -7,-8 -2,-3 -5,-5 -8,-7 -3,-2 -7,-3 -13,-3 -5,0 -10,1 -14,4 -4,2 -5,5 -5,9 0,3 1,6 4,8 3,2 6,4 11,5 4,1 11,3 19,5 9,2 17,5 23,8 6,3 10,7 14,11 3,4 5,9 5,15z"/>
  <path class="fil1" d="M4431 10419c-4,0 -8,-1 -11,-4 -3,-3 -4,-6 -4,-11 0,-4 2,-8 5,-11 3,-3 7,-4 11,-4 4,0 7,1 10,4 3,3 5,6 5,11 0,5 -1,8 -4,11 -3,3 -6,4 -11,4zm15 31l0 87c0,6 -1,11 -4,14 -3,3 -7,5 -11,5 -4,0 -8,-2 -11,-5 -3,-3 -4,-8 -4,-14l0 -87c0,-6 1,-11 4,-13 3,-3 6,-5 11,-5 4,0 8,2 11,5 3,3 4,7 4,13z"/>
  <path class="fil1" d="M4530 10580l0 21 -2 0c-10,0 -20,-1 -28,-4 -8,-3 -15,-7 -19,-11 -4,-5 -7,-9 -7,-14 0,-4 1,-7 4,-9 2,-2 6,-4 9,-4 4,0 8,2 12,6 2,2 3,4 5,6 2,2 4,4 6,5 2,1 5,2 8,3 3,1 6,1 10,1l3 0zm-29 -86c0,12 3,22 8,28 5,6 12,9 21,9l0 0 0 22c-3,1 -6,1 -9,1 -10,0 -19,-3 -27,-8 -8,-5 -13,-12 -17,-22 -4,-9 -6,-20 -6,-32 0,-9 1,-17 4,-25 3,-7 6,-14 11,-19 5,-5 10,-9 16,-11 6,-2 13,-4 20,-4 3,0 7,0 10,1l0 22 -1 0c-9,0 -16,3 -21,10 -5,7 -8,16 -8,28zm29 37c5,0 10,-1 14,-4 4,-3 8,-7 11,-12 3,-5 4,-12 4,-20 0,-12 -3,-22 -8,-29 -5,-7 -12,-10 -21,-10l0 -22c5,1 9,2 13,4 6,3 12,8 18,15l0 -4c0,-5 1,-9 4,-12 3,-3 6,-4 10,-4 6,0 10,2 12,6 2,4 3,9 3,16l0 88c0,10 -1,19 -3,26 -2,7 -6,13 -10,18 -5,5 -11,8 -19,11 -7,2 -16,3 -26,3l0 -21c7,0 12,-1 16,-3 4,-2 7,-5 9,-9 2,-4 3,-8 3,-13 0,-4 1,-12 1,-22 -5,6 -10,11 -16,15 -4,2 -8,3 -12,4l0 -22z"/>
  <path class="fil1" d="M4646 10450l0 4c5,-7 11,-12 17,-15 6,-3 14,-5 22,-5 8,0 15,2 21,5 6,3 11,8 14,15 2,4 3,8 4,12 1,4 1,10 1,16l0 56c0,6 -1,11 -4,14 -3,3 -6,5 -11,5 -5,0 -8,-2 -11,-5 -3,-3 -4,-8 -4,-14l0 -50c0,-10 -1,-18 -4,-23 -3,-5 -8,-8 -17,-8 -5,0 -10,2 -15,5 -4,3 -8,8 -10,13 -1,5 -2,13 -2,25l0 38c0,6 -1,11 -4,14 -3,3 -7,5 -11,5 -4,0 -8,-2 -11,-5 -3,-3 -4,-8 -4,-14l0 -87c0,-6 1,-10 4,-13 2,-3 6,-4 10,-4 3,0 5,1 7,2 2,1 4,3 5,6 1,2 2,6 2,9z"/>
  <path class="fil1" d="M4781 10485l27 0 0 17 -27 0c0,7 1,13 4,18 3,5 6,9 11,12 4,2 8,4 13,4l0 20c-18,-1 -32,-6 -42,-17 -11,-11 -16,-26 -16,-45 0,-9 1,-17 4,-25 3,-8 7,-14 12,-20 5,-5 11,-10 19,-13 7,-3 15,-4 24,-4l0 21 0 0c-8,0 -14,3 -19,8 -5,5 -8,13 -9,23zm27 71l0 -20 2 0c4,0 7,0 10,-1 3,-1 6,-2 9,-4 3,-2 5,-4 8,-6 2,-2 5,-5 9,-8 2,-1 4,-2 7,-2 3,0 6,1 8,3 2,2 3,4 3,7 0,3 -1,6 -3,10 -2,4 -5,7 -10,11 -4,3 -10,6 -16,8 -7,2 -14,3 -23,3l-3 0zm0 -71l27 0c-1,-10 -4,-18 -8,-23 -5,-5 -11,-8 -19,-8l0 -21 1 0c12,0 22,2 30,8 8,5 15,11 19,19 4,8 6,16 6,24 0,8 -2,13 -7,15 -4,2 -10,3 -18,3l-32 0 0 -17z"/>
  <path class="fil1" d="M4914 10495c0,8 1,15 4,21 3,6 6,10 10,13 4,3 9,4 15,4l0 0 0 23c-3,0 -6,1 -9,1 -7,0 -14,-2 -20,-5 -6,-3 -12,-7 -16,-13 -5,-6 -8,-12 -10,-20 -2,-8 -4,-16 -4,-25 0,-19 5,-34 14,-44 9,-11 21,-16 36,-16 3,0 6,0 9,1l0 22 0 0c-6,0 -10,2 -15,5 -4,3 -8,8 -10,14 -2,6 -4,13 -4,20zm29 38c5,0 10,-1 14,-4 4,-3 8,-7 11,-13 3,-6 4,-13 4,-21 0,-8 -1,-15 -4,-21 -3,-6 -6,-10 -11,-13 -4,-3 -9,-5 -14,-5l0 -22c5,1 9,2 13,4 6,3 12,8 18,14l0 -45c0,-6 1,-11 4,-14 2,-3 6,-5 11,-5 5,0 8,1 11,4 2,3 4,7 4,13l0 133c0,6 -1,10 -4,13 -3,3 -6,4 -10,4 -4,0 -8,-1 -10,-4 -3,-3 -4,-7 -4,-13l0 -3c-4,5 -8,8 -12,11 -4,3 -8,5 -13,7 -2,1 -4,1 -6,1l0 -23z"/>
  <path class="fil1" d="M5119 10495c0,12 3,21 8,28 5,6 12,9 21,10l0 23c-2,0 -3,-1 -4,-1 -4,-1 -8,-3 -10,-4 -3,-2 -5,-4 -7,-6 -2,-2 -5,-5 -8,-9l0 3c0,6 -1,10 -4,13 -3,3 -6,4 -10,4 -4,0 -8,-1 -10,-4 -3,-3 -4,-7 -4,-13l0 -132c0,-6 1,-11 4,-14 2,-3 6,-5 10,-5 5,0 8,2 11,5 3,3 4,7 4,13l0 46c6,-6 11,-10 17,-14 4,-2 8,-3 13,-4l0 22c-5,0 -10,2 -14,5 -5,3 -8,8 -11,14 -3,6 -4,13 -4,21zm29 37l1 0c8,0 14,-3 20,-10 6,-7 8,-16 8,-28 0,-8 -1,-15 -3,-21 -2,-6 -6,-10 -10,-13 -4,-3 -9,-5 -15,-5l-1 0 0 -22c3,0 6,-1 9,-1 10,0 19,2 26,7 8,5 13,12 18,21 4,9 6,20 6,32 0,9 -1,18 -3,25 -2,8 -6,14 -10,20 -4,6 -10,10 -16,13 -6,3 -13,5 -21,5 -3,0 -6,0 -9,-1l0 -23z"/>
  <path class="fil1" d="M5256 10560l3 -7 -37 -94c-2,-5 -3,-9 -3,-12 0,-3 1,-5 2,-7 1,-2 3,-4 5,-5 2,-1 5,-2 7,-2 4,0 8,1 10,4 2,3 4,7 6,12l26 74 24 -69c2,-6 4,-10 5,-13 2,-3 3,-5 5,-6 2,-1 4,-2 7,-2 2,0 4,1 7,2 2,1 4,3 5,5 1,2 2,4 2,7 0,1 -1,3 -1,6 -1,3 -1,5 -2,8l-39 103c-3,9 -7,16 -10,21 -3,5 -7,9 -13,12 -5,3 -13,4 -22,4 -9,0 -16,-1 -20,-3 -4,-2 -7,-5 -7,-11 0,-4 1,-6 3,-8 2,-2 5,-3 9,-3 2,0 3,0 5,1 2,0 4,1 5,1 3,0 6,-1 8,-2 2,-1 4,-3 5,-5 2,-3 3,-6 5,-11z"/>
  <path class="fil1" d="M5816 10436l7 0 0 -9c0,-9 1,-17 4,-23 2,-6 6,-10 12,-12 6,-3 14,-4 24,-4 18,0 27,4 27,13 0,3 -1,5 -3,7 -2,2 -4,3 -7,3 -1,0 -3,0 -6,-1 -3,0 -5,-1 -7,-1 -5,0 -9,2 -11,5 -2,3 -2,8 -2,14l0 7 7 0c12,0 17,3 17,10 0,5 -2,8 -5,9 -3,1 -7,2 -13,2l-7 0 0 80c0,6 -1,11 -4,14 -3,3 -7,5 -11,5 -4,0 -8,-2 -11,-5 -3,-3 -4,-8 -4,-14l0 -80 -8 0c-5,0 -8,-1 -10,-3 -2,-2 -4,-5 -4,-8 0,-7 5,-11 15,-11z"/>
  <path class="fil1" d="M5924 10513l0 25c0,6 -1,11 -4,14 -3,3 -7,5 -11,5 -4,0 -8,-2 -11,-5 -3,-3 -4,-8 -4,-14l0 -84c0,-14 5,-20 15,-20 5,0 9,2 11,5 2,3 3,8 4,14 4,-6 7,-11 11,-14 4,-3 9,-5 15,-5 6,0 13,2 19,5 6,3 9,7 9,13 0,4 -1,7 -4,9 -3,2 -5,4 -8,4 -1,0 -4,-1 -8,-2 -4,-1 -8,-2 -11,-2 -4,0 -8,1 -11,4 -3,2 -5,6 -7,10 -2,5 -3,10 -3,16 -1,6 -1,14 -1,23z"/>
  <path class="fil1" d="M6013 10485l27 0 0 17 -27 0c0,7 1,13 4,18 3,5 6,9 11,12 4,2 8,4 13,4l0 20c-18,-1 -32,-6 -42,-17 -11,-11 -16,-26 -16,-45 0,-9 1,-17 4,-25 3,-8 7,-14 12,-20 5,-5 11,-10 19,-13 7,-3 15,-4 24,-4l0 21 0 0c-8,0 -14,3 -19,8 -5,5 -8,13 -9,23zm27 71l0 -20 2 0c4,0 7,0 10,-1 3,-1 6,-2 9,-4 3,-2 5,-4 8,-6 2,-2 5,-5 9,-8 2,-1 4,-2 7,-2 3,0 6,1 8,3 2,2 3,4 3,7 0,3 -1,6 -3,10 -2,4 -5,7 -10,11 -4,3 -10,6 -16,8 -7,2 -14,3 -23,3l-3 0zm0 -71l27 0c-1,-10 -4,-18 -8,-23 -5,-5 -11,-8 -19,-8l0 -21 1 0c12,0 22,2 30,8 8,5 15,11 19,19 4,8 6,16 6,24 0,8 -2,13 -7,15 -4,2 -11,3 -18,3l-32 0 0 -17z"/>
  <path class="fil1" d="M6148 10485l27 0 0 17 -27 0c0,7 1,13 4,18 3,5 6,9 11,12 4,2 8,4 13,4l0 20c-18,-1 -32,-6 -42,-17 -11,-11 -16,-26 -16,-45 0,-9 1,-17 4,-25 3,-8 7,-14 12,-20 5,-5 11,-10 19,-13 7,-3 15,-4 24,-4l0 21 0 0c-7,0 -14,3 -19,8 -5,5 -8,13 -9,23zm27 71l0 -20 2 0c4,0 7,0 10,-1 3,-1 6,-2 9,-4 3,-2 5,-4 8,-6 2,-2 5,-5 9,-8 2,-1 4,-2 7,-2 3,0 6,1 8,3 2,2 3,4 3,7 0,3 -1,6 -3,10 -2,4 -5,7 -10,11 -4,3 -10,6 -16,8 -7,2 -14,3 -23,3l-3 0zm0 -71l27 0c-1,-10 -4,-18 -8,-23 -5,-5 -11,-8 -19,-8l0 -21 1 0c12,0 22,2 30,8 8,5 15,11 19,19 4,8 6,16 6,24 0,8 -2,13 -7,15 -4,2 -10,3 -18,3l-32 0 0 -17z"/>
  <path class="fil1" d="M6313 10456c-8,0 -15,3 -20,10 -6,7 -9,16 -9,29 0,12 3,21 9,28 5,7 12,10 20,10l0 23c-5,-1 -10,-2 -14,-5 -6,-3 -11,-8 -17,-15l0 45c0,13 -5,20 -14,20 -6,0 -9,-2 -11,-5 -2,-3 -3,-8 -3,-15l0 -131c0,-6 1,-10 4,-13 2,-3 6,-4 10,-4 4,0 8,1 10,4 3,3 4,7 4,13l0 4c6,-7 12,-12 18,-15 4,-2 8,-3 13,-4l0 22zm29 38c0,-8 -1,-15 -4,-21 -2,-6 -6,-10 -10,-13 -4,-3 -9,-5 -14,-5l-1 0 0 -22c3,0 5,-1 8,-1 9,0 18,2 26,7 8,5 14,12 19,21 5,9 7,20 7,33 0,9 -1,18 -4,26 -3,8 -6,14 -11,20 -5,5 -10,9 -16,12 -6,3 -13,4 -20,4 -3,0 -6,0 -8,-1l0 -23 1 0c5,0 10,-1 14,-4 4,-3 8,-7 10,-13 3,-6 4,-13 4,-21z"/>
  <path class="fil1" d="M6412 10419c-4,0 -8,-1 -11,-4 -3,-3 -4,-6 -4,-11 0,-4 2,-8 5,-11 3,-3 7,-4 11,-4 4,0 7,1 10,4 3,3 5,6 5,11 0,5 -2,8 -5,11 -3,3 -6,4 -10,4zm15 31l0 87c0,6 -1,11 -4,14 -3,3 -7,5 -11,5 -4,0 -8,-2 -11,-5 -3,-3 -4,-8 -4,-14l0 -87c0,-6 1,-11 4,-13 3,-3 6,-5 11,-5 4,0 8,2 11,5 3,3 4,7 4,13z"/>
  <path class="fil1" d="M6533 10542l-27 -44 -16 16 0 24c0,6 -2,10 -5,13 -3,3 -7,5 -11,5 -5,0 -8,-2 -11,-5 -3,-3 -4,-8 -4,-14l0 -129c0,-7 1,-12 4,-15 3,-4 6,-5 11,-5 5,0 8,2 11,5 3,3 4,8 4,14l0 73 34 -36c4,-4 7,-7 10,-9 2,-2 5,-2 8,-2 4,0 7,1 9,4 2,2 4,5 4,9 0,4 -4,10 -12,18l-16 15 31 49c2,4 4,6 5,8 1,2 2,4 2,5 0,5 -1,9 -4,11 -3,3 -6,4 -10,4 -4,0 -7,-1 -9,-3 -2,-2 -5,-6 -8,-11z"/>
  <path class="fil1" d="M6608 10556c-5,0 -8,-1 -12,-4 -3,-3 -5,-7 -5,-12 0,-4 2,-8 5,-12 3,-3 7,-5 12,-5 5,0 9,2 12,5 3,3 5,7 5,12 0,5 -2,9 -5,12 -3,3 -7,4 -12,4z"/>
  <path class="fil1" d="M6768 10519c0,4 -1,8 -3,12 -2,4 -6,8 -10,12 -5,4 -11,7 -17,9 -7,2 -15,4 -24,4 -19,0 -33,-5 -44,-16 -10,-11 -16,-25 -16,-44 0,-13 2,-23 7,-33 5,-9 12,-17 21,-22 9,-5 20,-8 33,-8 8,0 15,1 22,3 7,2 12,5 17,9 5,4 8,7 10,12 2,4 4,8 4,11 0,4 -1,7 -4,9 -3,3 -6,4 -10,4 -3,0 -5,-1 -6,-2 -2,-1 -4,-3 -6,-6 -4,-6 -8,-10 -12,-13 -4,-3 -9,-4 -15,-4 -9,0 -16,3 -22,10 -5,7 -8,17 -8,29 0,6 1,11 2,16 1,5 3,9 6,12 3,3 6,6 10,8 4,2 8,3 12,3 6,0 11,-1 16,-4 4,-3 8,-7 12,-13 2,-3 4,-6 6,-8 2,-2 5,-3 8,-3 4,0 7,1 9,4 2,3 4,6 4,9z"/>
  <path class="fil1" d="M6847 10456l0 0c-6,0 -11,2 -16,5 -4,3 -8,8 -10,14 -2,6 -4,13 -4,21 0,8 1,15 4,21 2,6 6,10 10,14 4,3 10,5 16,5l0 0 0 23 0 0c-9,0 -17,-1 -25,-4 -7,-3 -14,-7 -19,-13 -5,-5 -9,-12 -12,-20 -3,-7 -4,-16 -4,-25 0,-9 1,-18 4,-25 3,-8 7,-14 12,-19 5,-5 12,-10 19,-12 8,-3 16,-4 25,-4l0 0 0 22zm30 39c0,-12 -3,-22 -8,-29 -5,-7 -13,-10 -22,-10l0 -22c9,0 17,2 25,4 7,3 14,7 19,13 5,5 9,12 12,20 3,8 4,16 4,25 0,9 -1,17 -4,25 -3,8 -7,14 -12,20 -5,5 -12,10 -19,13 -7,3 -16,4 -25,4l0 -23c9,0 16,-3 22,-10 5,-7 8,-16 8,-29z"/>
  <path class="fil1" d="M7032 10497l0 40c0,6 -1,11 -4,14 -3,3 -7,5 -11,5 -5,0 -8,-2 -11,-5 -3,-3 -4,-8 -4,-14l0 -48c0,-8 0,-13 -1,-18 0,-4 -2,-8 -4,-10 -2,-3 -6,-4 -11,-4 -10,0 -16,3 -19,10 -3,7 -5,17 -5,29l0 41c0,6 -1,11 -4,14 -3,3 -7,5 -11,5 -5,0 -8,-2 -11,-5 -3,-3 -4,-8 -4,-14l0 -87c0,-6 1,-10 4,-13 3,-3 6,-4 10,-4 4,0 8,1 10,4 3,3 4,7 4,11l0 3c5,-6 11,-11 17,-14 6,-3 13,-4 20,-4 8,0 14,1 20,5 5,3 10,8 14,14 5,-6 11,-11 16,-14 6,-3 12,-4 19,-4 8,0 15,2 21,5 6,3 10,8 13,14 3,5 4,14 4,26l0 59c0,6 -2,11 -4,14 -3,3 -7,5 -11,5 -5,0 -8,-2 -11,-5 -3,-3 -4,-8 -4,-14l0 -51c0,-6 0,-12 -1,-16 -1,-4 -2,-7 -5,-10 -2,-3 -6,-4 -11,-4 -4,0 -8,1 -11,3 -4,2 -6,6 -8,10 -2,5 -3,14 -3,27z"/>
  <path class="fil1" d="M5578 10355c-1,-2 -1,-4 -2,-6 10,-1 17,-13 12,-22 -2,-5 -8,-8 -14,-8l-1 0c-5,0 -9,2 -12,6 -6,8 -1,21 9,24 1,2 1,4 2,6 -15,1 -31,4 -44,13 1,4 3,7 4,11 26,-11 55,-9 82,-6 1,-4 2,-7 3,-11 -12,-6 -26,-8 -39,-7z"/>
  <path class="fil1" d="M5731 10397c-4,2 -5,7 -5,11 -5,4 -2,11 -3,17 -1,3 -5,3 -7,5 -4,-5 -7,-11 -12,-15l0 0c-5,-5 -11,-9 -17,-13 -5,5 -10,10 -14,15 9,10 17,21 25,32 5,9 9,18 13,27 8,-4 15,-8 23,-12 -4,-9 -9,-18 -14,-27 3,-2 8,-4 8,-8 0,-5 -1,-10 2,-14 6,4 15,0 15,-8 1,-7 -9,-13 -15,-9z"/>
  <path class="fil1" d="M5524 10391l0 27c-7,0 -14,2 -20,5 -13,7 -22,20 -22,35 -1,12 4,23 12,32 8,9 19,13 31,13l0 37c-27,-1 -54,-7 -80,-14 -5,-24 -5,-51 6,-73 11,-25 33,-45 58,-56 5,-2 11,-4 16,-6zm121 90l0 0c-7,1 -14,-3 -19,-8 -4,-4 -7,-10 -7,-15 -2,-13 7,-26 20,-29 2,-1 5,-1 7,-1l0 -29c-15,-11 -34,-17 -52,-17 -23,0 -47,3 -69,10l0 27c4,0 8,1 12,2 4,1 9,3 12,6 8,6 14,14 16,23 4,12 1,25 -6,36 -5,7 -12,13 -20,16 -5,2 -10,3 -15,3l0 37 1 0c27,1 54,2 81,-2 13,-2 26,-4 39,-8l0 -50zm26 -22c-2,12 -14,23 -26,22l0 50c23,-6 46,-16 67,-28 0,0 -4,-24 -22,-51 -10,-17 -21,-33 -36,-46 -3,-3 -6,-5 -10,-8l0 29c3,0 6,1 10,1 12,4 19,17 17,29z"/>
  <path class="fil1" d="M5450 10415c-11,7 -20,16 -27,26 -2,-4 -3,-9 -6,-12 -2,-2 -5,-1 -7,-1 -3,0 -6,0 -8,-1 3,-4 2,-11 -3,-14 -5,-4 -13,0 -15,6 -2,7 5,13 12,12 4,5 10,4 15,5 2,4 4,9 7,13 -6,11 -9,24 -9,37 7,3 15,6 22,9 0,-8 1,-16 3,-24 3,-17 13,-32 24,-45 -3,-3 -6,-6 -9,-9z"/>
  <path class="fil1" d="M5624 10546c-27,6 -56,8 -84,7 -19,-1 -38,-3 -56,-7 -13,-3 -26,-6 -39,-10 2,17 9,32 18,46 11,16 26,30 45,36 14,4 30,8 56,8l3 0 3 0c25,0 49,-4 71,-13 14,-6 27,-14 38,-25 10,-9 17,-21 23,-33 5,-12 10,-33 9,-43 -27,15 -57,29 -87,34z"/>
  <path class="fil2" d="M6736 2129c0,-652 -529,-1181 -1181,-1181 -652,0 -1181,529 -1181,1181 0,652 529,1181 1181,1181 652,0 1181,-529 1181,-1181z"/>
  <path class="fil3" d="M10186 2129c0,-652 -529,-1181 -1181,-1181 -652,0 -1181,529 -1181,1181 0,652 529,1181 1181,1181 652,0 1181,-529 1181,-1181z"/>
  <path class="fil4" d="M10186 5192c0,-652 -529,-1181 -1181,-1181 -652,0 -1181,529 -1181,1181 0,652 529,1181 1181,1181 652,0 1181,-529 1181,-1181z"/>
  <path class="fil5" d="M6736 5192c0,-652 -529,-1181 -1181,-1181 -652,0 -1181,529 -1181,1181 0,652 529,1181 1181,1181 652,0 1181,-529 1181,-1181z"/>
  <path class="fil6" d="M3294 5192c0,-652 -529,-1181 -1181,-1181 -652,0 -1181,529 -1181,1181 0,652 529,1181 1181,1181 652,0 1181,-529 1181,-1181z"/>
  <path class="fil7" d="M3294 8270c0,-652 -529,-1181 -1181,-1181 -652,0 -1181,529 -1181,1181 0,652 529,1181 1181,1181 652,0 1181,-529 1181,-1181z"/>
  <path class="fil6" d="M6736 8270c0,-652 -529,-1181 -1181,-1181 -652,0 -1181,529 -1181,1181 0,652 529,1181 1181,1181 652,0 1181,-529 1181,-1181z"/>
  <path class="fil8" d="M8984 5529c-323,0 -596,259 -680,613 196,145 439,231 702,231 246,0 475,-76 664,-205 -77,-367 -355,-639 -686,-639z"/>
  <path class="fil8" d="M7954 4726c0,0 385,-174 512,24 127,198 170,265 170,265 0,0 -410,135 -538,-64 -127,-198 -144,-225 -144,-225z"/>
  <path class="fil9" d="M8075 4777c0,0 249,-113 331,15 82,128 110,171 110,171 0,0 -265,87 -347,-41 -82,-128 -93,-145 -93,-145z"/>
  <path class="fil8" d="M10057 4763c0,0 -373,-198 -512,-7 -139,190 -186,254 -186,254 0,0 401,159 540,-31 139,-190 158,-216 158,-216z"/>
  <path class="fil9" d="M9933 4807c0,0 -241,-128 -331,-5 -90,123 -120,164 -120,164 0,0 259,103 349,-20 90,-123 102,-139 102,-139z"/>
  <path class="fil8" d="M9515 5052c3,-16 5,-33 5,-49 0,-217 -240,-393 -536,-393 -296,0 -536,176 -536,393 0,17 2,33 5,49 -63,73 -100,159 -100,252 0,259 283,468 631,468 349,0 631,-210 631,-468 0,-93 -37,-179 -100,-252z"/>
  <path class="fil0" d="M9290 5013c0,0 -157,-46 -154,115 0,0 154,56 154,-115z"/>
  <path class="fil10" d="M9161 5063c0,21 17,38 38,38 21,0 38,-17 38,-38 0,-21 -17,-38 -38,-38 -21,0 -38,17 -38,38z"/>
  <path class="fil0" d="M9181 5059c0,5 4,9 9,9 5,0 9,-4 9,-9 0,-5 -4,-9 -9,-9 -5,0 -9,4 -9,9z"/>
  <path class="fil0" d="M8678 5013c0,0 158,-46 154,115 0,0 -154,56 -154,-115z"/>
  <path class="fil10" d="M8806 5063c0,21 -17,38 -38,38 -21,0 -38,-17 -38,-38 0,-21 17,-38 38,-38 21,0 38,17 38,38z"/>
  <path class="fil0" d="M8786 5059c0,5 -4,9 -9,9 -5,0 -9,-4 -9,-9 0,-5 4,-9 9,-9 5,0 9,4 9,9z"/>
  <path class="fil9" d="M8984 5519c-113,0 -201,-58 -201,-133 0,-74 88,-133 201,-133 113,0 201,58 201,133 0,74 -88,133 -201,133z"/>
  <path class="fil11" d="M8935 5378c0,21 -17,38 -38,38 -21,0 -38,-17 -38,-38 0,-21 17,-38 38,-38 21,0 38,17 38,38z"/>
  <path class="fil11" d="M9100 5378c0,21 -17,38 -38,38 -21,0 -38,-17 -38,-38 0,-21 17,-38 38,-38 21,0 38,17 38,38z"/>
  <path class="fil12" d="M8982 5471c0,0 -72,-34 -141,0 -69,34 -133,95 -172,12 0,0 -2,129 157,114 159,-16 164,-105 157,-126z"/>
  <path class="fil12" d="M8985 5471c0,0 72,-34 141,0 69,34 133,95 172,12 0,0 2,129 -157,114 -159,-16 -164,-105 -157,-126z"/>
  <path class="fil13" d="M9191 5727c-29,-10 -172,73 -172,73 -9,-9 -21,-15 -35,-15 -14,0 -27,6 -35,15 0,0 -143,-87 -170,-71 -27,16 -28,185 0,202 28,17 173,-68 173,-68 9,8 20,13 33,13 13,0 24,-5 33,-13 0,0 150,88 173,68 23,-20 30,-195 1,-204z"/>
  <path class="fil13" d="M9426 4963c-10,0 -19,-2 -19,-5 0,-3 8,-5 19,-5 10,0 19,2 19,5 0,3 -8,5 -19,5zm-32 90c-1,33 -6,66 -18,97 -5,13 -11,24 -21,34 -11,11 -25,16 -39,20 -18,5 -37,6 -55,6 -28,0 -56,-3 -84,-9 -27,-6 -49,-20 -67,-42 -22,-28 -37,-59 -44,-94 -4,-16 -7,-32 -6,-49 0,-7 1,-14 2,-21 3,-17 14,-29 30,-35 16,-7 33,-11 50,-14 19,-4 38,-7 58,-8 15,-1 30,-1 40,-2 41,2 76,5 110,15 6,2 12,5 18,8 6,3 10,7 13,13 3,6 6,12 9,19 3,8 4,16 4,24 1,13 1,26 1,38zm-495 10c-7,28 -17,54 -32,78 -8,13 -17,26 -28,37 -15,14 -33,23 -52,28 -40,10 -80,13 -121,7 -8,-1 -16,-3 -24,-5 -16,-4 -28,-14 -38,-27 -10,-15 -17,-32 -21,-50 -6,-23 -9,-47 -11,-71 -1,-14 -1,-28 1,-41 1,-7 1,-14 3,-21 6,-24 20,-39 44,-46 22,-6 44,-9 66,-11 17,-1 33,-2 44,-3 38,0 70,3 102,10 13,3 26,6 38,12 6,3 11,7 17,11 8,7 13,16 14,27 4,22 2,44 -3,65zm-358 -100c-10,0 -19,-2 -19,-5 0,-3 8,-5 19,-5 10,0 19,2 19,5 0,3 -8,5 -19,5zm924 -30c0,-3 -2,-5 -5,-6 -2,-1 -4,-1 -6,-1 -30,-5 -60,-9 -91,-11 -24,-2 -49,-3 -73,-4 -47,-2 -94,-1 -140,5 -28,4 -57,9 -84,18 -14,4 -27,10 -41,14 -22,7 -44,10 -66,6 -13,-3 -27,-6 -40,-11 -24,-8 -47,-15 -72,-20 -48,-9 -96,-13 -141,-12 -37,0 -69,1 -102,5 -27,3 -54,7 -80,10 -6,1 -11,2 -17,4 -3,1 -5,3 -5,6 -1,16 -1,32 -2,47 0,2 1,5 1,7 0,2 1,3 3,4 2,1 4,2 6,3 9,6 13,15 16,25 2,7 4,14 6,21 1,4 3,9 4,13 5,21 9,41 14,62 5,20 10,39 20,57 11,20 26,36 47,44 13,5 26,9 40,11 25,4 49,4 74,3 25,-2 50,-6 74,-13 18,-5 35,-13 49,-25 22,-19 40,-41 53,-67 14,-26 23,-53 32,-80 2,-8 5,-16 8,-24 4,-11 12,-18 25,-20 4,-1 8,-1 12,-1 9,1 18,2 24,10 3,3 5,7 7,11 3,8 6,15 9,23 11,34 25,66 43,97 15,26 35,46 61,60 18,10 38,16 59,20 31,6 62,7 94,6 19,-1 38,-3 56,-9 19,-6 35,-15 48,-30 8,-10 14,-21 19,-33 10,-25 17,-51 23,-77 3,-13 6,-26 9,-38 2,-7 4,-13 6,-20 2,-6 3,-12 7,-18 4,-5 8,-11 15,-13 3,-1 4,-3 5,-6 0,-2 1,-4 1,-6 0,-9 0,-19 0,-28 0,-7 -1,-14 -1,-20z"/>
  <path class="fil14" d="M9556 3174c1,-52 2,-103 2,-123 0,-359 -222,-650 -497,-650 -274,0 -497,291 -497,650 0,27 1,109 4,176 135,54 283,84 437,84 199,0 386,-49 551,-136z"/>
  <path class="fil15" d="M8829 2569c0,0 -142,325 -57,449 81,118 267,275 284,290l3 0c26,-18 314,-216 318,-369 5,-160 -91,-418 -91,-418l-459 48z"/>
  <path class="fil16" d="M8757 2524c100,76 103,122 116,248 30,239 132,232 188,232l0 -452c0,0 -252,-201 -373,-277 -14,56 -32,172 68,248z"/>
  <path class="fil16" d="M9434 2276c-121,76 -373,277 -373,277l0 452c56,0 158,7 188,-232 14,-127 16,-172 116,-248 100,-76 82,-192 68,-248z"/>
  <path class="fil16" d="M9342 1931c0,0 181,-163 402,-66 -54,120 -153,220 -347,230l-55 -165z"/>
  <path class="fil10" d="M9357 1985c0,0 188,-111 302,-61 -28,62 -169,154 -270,159l-32 -98z"/>
  <path class="fil16" d="M8773 1920c0,0 -181,-163 -402,-66 54,120 153,220 347,230l55 -165z"/>
  <path class="fil10" d="M8758 1975c0,0 -188,-111 -302,-61 28,62 169,154 270,159l32 -98z"/>
  <path class="fil14" d="M9399 1897l-102 -51 -236 96 -236 -96 -102 51c0,0 6,258 -38,389 105,32 220,233 280,440l191 0c61,-207 175,-408 280,-440 -45,-131 -38,-389 -38,-389z"/>
  <path class="fil10" d="M9107 2698c55,0 72,35 38,78l-22 28c-34,43 -89,43 -123,0l-22 -28c-34,-43 -17,-78 38,-78l90 0z"/>
  <path class="fil0" d="M9422 2339c0,0 -166,-48 -162,120 0,0 162,59 162,-120z"/>
  <path class="fil10" d="M9287 2391c0,22 18,40 40,40 22,0 40,-18 40,-40 0,-22 -18,-40 -40,-40 -22,0 -40,18 -40,40z"/>
  <path class="fil0" d="M9308 2387c0,5 4,9 9,9 5,0 9,-4 9,-9 0,-5 -4,-9 -9,-9 -5,0 -9,4 -9,9z"/>
  <path class="fil0" d="M8701 2339c0,0 166,-48 162,120 0,0 -162,59 -162,-120z"/>
  <path class="fil10" d="M8836 2391c0,22 -18,40 -40,40 -22,0 -40,-18 -40,-40 0,-22 18,-40 40,-40 22,0 40,18 40,40z"/>
  <path class="fil0" d="M8815 2387c0,5 -4,9 -9,9 -5,0 -9,-4 -9,-9 0,-5 4,-9 9,-9 5,0 9,4 9,9z"/>
  <path class="fil13" d="M9269 3039c-29,-10 -172,73 -172,73 -9,-9 -21,-15 -35,-15 -14,0 -27,6 -35,15 0,0 -143,-87 -170,-71 -27,16 -28,185 0,202 28,17 173,-68 173,-68 9,8 20,13 33,13 13,0 24,-5 33,-13 0,0 150,88 173,68 23,-20 30,-195 1,-204z"/>
  <path class="fil10" d="M9062 2837c0,0 -63,-8 -82,37 -19,45 -67,93 -96,76 -42,-24 -24,-76 16,-88 -28,-28 -103,42 -46,96 60,57 179,-3 208,-66 0,-38 0,-55 0,-55z"/>
  <path class="fil10" d="M9062 2837c0,0 63,-8 82,37 19,45 67,93 96,76 42,-24 24,-76 -15,-88 28,-28 103,42 46,96 -60,57 -179,-3 -208,-66 0,-38 0,-55 0,-55z"/>
  <path class="fil13" d="M8804 2578c-83,0 -150,-67 -150,-150 0,-83 67,-150 150,-150 83,0 150,67 150,150 0,83 -67,150 -150,150zm0 -331c-100,0 -181,81 -181,181 0,100 81,181 181,181 100,0 181,-81 181,-181 0,-100 -81,-181 -181,-181z"/>
  <polygon class="fil13" points="8562,2446 8650,2446 8650,2410 8562,2410 "/>
  <polygon class="fil13" points="8562,3149 8595,3149 8595,2428 8562,2428 "/>
  <path class="fil14" d="M9392 1925c0,0 55,-193 143,-222 88,-29 202,-29 389,-10 187,19 447,-63 592,-295 145,-232 19,-150 -19,-85 -38,65 -218,255 -366,286 -148,31 -303,10 -319,-50 -16,-60 186,-328 278,-383 92,-55 112,-156 -14,-54 -127,102 -248,234 -377,460 -53,25 -177,60 -227,27 -50,-32 13,-334 117,-438 104,-104 198,-162 289,-152 91,10 76,-73 -43,-48 -118,26 -381,19 -461,445 -21,111 11,280 11,280l-96 174 101 65z"/>
  <path class="fil14" d="M8733 1927c0,0 -55,-193 -143,-222 -88,-29 -202,-29 -389,-10 -187,19 -447,-63 -592,-295 -145,-232 -19,-150 19,-85 38,65 218,255 366,286 148,31 303,10 319,-50 16,-60 -186,-328 -279,-383 -92,-55 -112,-156 14,-54 127,102 248,234 377,460 53,25 177,60 227,27 50,-32 -13,-334 -117,-438 -104,-104 -198,-162 -289,-152 -91,10 -76,-73 43,-48 118,26 381,19 461,445 21,111 -11,280 -11,280l96 174 -101 65z"/>
  <path class="fil17" d="M5595 2566c-276,0 -504,273 -545,631 153,73 324,113 505,113 211,0 408,-55 580,-152 -52,-338 -274,-592 -540,-592z"/>
  <path class="fil18" d="M5448 2779c44,91 176,193 288,0 -7,-83 -88,-104 -141,-104 -101,0 -147,104 -147,104z"/>
  <path class="fil19" d="M6272 2506c-8,-6 -19,-12 -32,-17 3,2 6,4 9,6 8,4 16,7 22,11z"/>
  <path class="fil19" d="M6272 2506c-7,-4 -14,-8 -22,-11 13,8 22,11 22,11z"/>
  <path class="fil19" d="M4949 2489c-13,5 -23,11 -32,17 7,-4 14,-8 22,-11 3,-2 6,-4 9,-6z"/>
  <path class="fil19" d="M4917 2506c0,0 9,-4 22,-11 -8,4 -16,7 -22,11z"/>
  <path class="fil20" d="M5797 1892c105,-424 449,-572 449,-572 0,0 246,643 -225,797l-225 -224z"/>
  <path class="fil17" d="M5848 1931c135,-403 350,-473 350,-473 0,0 186,385 -223,619l-127 -146z"/>
  <path class="fil20" d="M5392 1892c-105,-424 -449,-572 -449,-572 0,0 -246,643 225,797l225 -224z"/>
  <path class="fil17" d="M5341 1931c-135,-403 -350,-473 -350,-473 0,0 -186,385 223,619l127 -146z"/>
  <path class="fil18" d="M5736 2779c-13,-33 -38,-59 -68,-76 25,-41 109,-149 298,-212 140,-47 260,-17 306,16 0,0 -141,180 -536,272z"/>
  <path class="fil18" d="M5453 2779c13,-33 38,-59 68,-76 -25,-41 -109,-149 -298,-212 -140,-47 -260,-17 -306,16 0,0 141,180 536,272z"/>
  <path class="fil17" d="M6112 2321c0,-7 1,-13 1,-20 0,-286 -232,-518 -518,-519l0 0 0 0 -1 0 0 0c-286,1 -518,233 -518,519 0,7 1,13 1,20 -24,98 -100,152 -138,174 59,-26 158,-37 284,-5 145,38 273,159 298,212 22,-12 47,-20 73,-20 27,0 52,8 73,20 25,-53 153,-175 298,-212 125,-32 224,-21 283,5 -38,-22 -114,-76 -138,-174z"/>
  <path class="fil17" d="M6250 2495c13,8 22,11 22,11 -7,-4 -14,-8 -22,-11z"/>
  <path class="fil17" d="M4939 2495c-8,4 -16,7 -22,11 0,0 9,-4 22,-11z"/>
  <polygon class="fil21" points="5594,1782 5594,1782 5595,1782 "/>
  <polygon class="fil22" points="5521,2702 5521,2702 5521,2703 "/>
  <polygon class="fil23" points="5595,1782 5595,1782 5595,1782 "/>
  <polygon class="fil23" points="5595,2235 5595,1782 5595,1782 5594,1782 5594,2235 "/>
  <polygon class="fil23" points="5594,2683 5595,2683 5595,2683 5595,2235 5594,2235 "/>
  <path class="fil23" d="M5521 2702l0 0c22,-12 46,-19 73,-20l0 0c-27,0 -51,7 -73,19z"/>
  <polygon class="fil23" points="5594,2683 5594,2683 5595,2683 "/>
  <path class="fil10" d="M5636 2600c52,0 68,33 36,74l-20 26c-32,41 -84,41 -116,0l-20 -26c-32,-41 -16,-74 36,-74l85 0z"/>
  <path class="fil10" d="M5436 2770c0,0 89,28 156,-40 59,47 96,60 160,23 -65,72 -139,49 -162,44 -51,13 -141,10 -154,-27z"/>
  <path class="fil0" d="M5296 2223c0,0 172,-50 168,125 0,0 -168,61 -168,-125z"/>
  <path class="fil10" d="M5433 2277c0,23 -19,42 -42,42 -23,0 -42,-19 -42,-42 0,-23 19,-42 42,-42 23,0 42,19 42,42z"/>
  <path class="fil0" d="M5419 2262c0,5 -4,10 -10,10 -5,0 -10,-4 -10,-10 0,-5 4,-10 10,-10 5,0 10,4 10,10z"/>
  <path class="fil0" d="M5888 2223c0,0 -172,-50 -168,125 0,0 168,61 168,-125z"/>
  <path class="fil10" d="M5747 2277c0,23 19,42 42,42 23,0 42,-19 42,-42 0,-23 -19,-42 -42,-42 -23,0 -42,19 -42,42z"/>
  <path class="fil0" d="M5760 2258c0,5 4,10 10,10 5,0 10,-4 10,-10 0,-5 -4,-10 -10,-10 -5,0 -10,4 -10,10z"/>
  <path class="fil13" d="M5800 2872c-29,-10 -172,73 -172,73 -9,-9 -21,-15 -35,-15 -14,0 -27,6 -35,15 0,0 -143,-87 -170,-71 -27,16 -28,186 0,202 28,17 173,-68 173,-68 9,8 20,13 33,13 13,0 24,-5 33,-13 0,0 150,88 173,68 23,-20 30,-195 1,-204z"/>
  <polygon class="fil24" points="5323,2506 5323,2506 5278,2505 5170,2136 5207,2120 "/>
  <path class="fil24" d="M5881 2501l-43 -2 -41 -142c13,-2 27,-6 39,-13l45 157 0 0zm-118 -264l-40 -140 42 -4 36 128c-13,3 -26,8 -38,16z"/>
  <path class="fil0" d="M5798 2357l-11 -37c1,0 1,0 2,0 15,0 28,-8 35,-19l12 44c-12,7 -26,11 -39,13zm-33 -114l-2 -6c12,-8 25,-13 38,-16l6 20c-5,-3 -12,-4 -18,-4 -9,0 -17,3 -24,7z"/>
  <path class="fil25" d="M5789 2319c-1,0 -1,0 -2,0l-15 -52c4,-1 7,-5 7,-9 0,-5 -4,-10 -10,-10 -1,0 -2,0 -3,0l-2 -5c7,-5 15,-7 24,-7 6,0 13,1 18,4l17 60c-7,12 -20,19 -35,19z"/>
  <path class="fil0" d="M5772 2267l-5 -19c1,0 2,0 3,0 5,0 10,4 10,10 0,4 -3,8 -7,9z"/>
  <path class="fil26" d="M5237 2495c-5,-2 -9,-3 -14,-5 5,1 9,2 14,4l0 1z"/>
  <path class="fil27" d="M5238 2498l0 0c-9,-4 -19,-7 -28,-11 4,1 9,2 13,3l0 0c5,2 9,3 14,5l1 3z"/>
  <path class="fil24" d="M5237 2494c-5,-1 -9,-3 -14,-4l0 0c-4,-1 -9,-2 -13,-3 0,0 0,0 0,0 -15,-7 -16,-12 -31,-19l-70 -253 0 -20c2,-2 3,-3 5,-6 8,-16 20,-28 19,-44l0 0 105 350z"/>
  <path class="fil24" d="M5787 2473l0 0 -42 -22 -110 -338 43 -14 52 179c-8,18 -12,41 -11,70 0,0 14,5 34,8l34 117z"/>
  <path class="fil0" d="M5753 2356c-20,-3 -34,-8 -34,-8 -1,-29 4,-52 11,-70l22 78z"/>
  <path class="fil28" d="M6009 2455c-33,39 -103,44 -151,38 -83,-18 -104,-50 -137,-86 -33,-36 -61,-110 -70,-147 -8,-37 -7,-102 0,-122 7,-19 37,-34 126,-40 89,-6 171,8 222,30 51,21 70,88 70,88 0,0 4,21 4,80 0,59 -33,120 -65,159zm-471 -195c-8,37 -37,111 -70,147 -33,36 -54,68 -137,86 -47,6 -118,1 -150,-38 -33,-39 -65,-100 -65,-159 0,-59 4,-80 4,-80 0,0 19,-66 70,-88 51,-21 133,-36 222,-30 89,6 119,20 126,40 7,19 8,85 0,122zm578 -18c-4,-5 -10,-4 -13,-15 -3,-11 -32,-87 -63,-105 -32,-17 -92,-47 -239,-57 -114,-3 -183,-5 -202,-6l0 0c0,0 -1,0 -3,0 -2,0 -3,0 -3,0l0 0c-20,1 -88,3 -202,6 -147,10 -208,40 -239,57 -32,17 -60,94 -63,105 -3,11 -9,10 -13,15 -4,5 1,32 12,49 12,98 53,153 79,183 26,30 96,44 145,42 108,-18 127,-51 174,-97 47,-46 84,-172 90,-186 4,-11 16,-15 22,-16 6,1 18,5 22,16 5,14 43,140 90,186 47,46 65,79 174,97 49,2 120,-12 145,-42 26,-30 66,-85 79,-183 11,-17 15,-44 12,-49z"/>
  <path class="fil29" d="M10186 8270c0,-652 -529,-1181 -1181,-1181 -652,0 -1181,529 -1181,1181 0,652 529,1181 1181,1181 652,0 1181,-529 1181,-1181z"/>
  <path class="fil10" d="M9005 8706c-320,0 -590,224 -677,530 192,135 425,214 677,214 252,0 486,-79 678,-214 -87,-307 -358,-530 -677,-530z"/>
  <path class="fil30" d="M8694 8770l311 681 -351 -284 87 -88 -213 -214 166 -94zm311 681l335 -655 208 44 -190 201 111 38 -464 372z"/>
  <path class="fil10" d="M8741 7825c0,-75 -60,-135 -135,-135 -75,0 -135,60 -135,135 0,75 60,135 135,135 75,0 135,-60 135,-135z"/>
  <path class="fil10" d="M9537 7825c0,-75 -60,-135 -135,-135 -75,0 -135,60 -135,135 0,75 60,135 135,135 75,0 135,-60 135,-135z"/>
  <path class="fil31" d="M9470 7848c0,-50 -40,-90 -90,-90 -50,0 -90,40 -90,90 0,50 40,90 90,90 50,0 90,-40 90,-90z"/>
  <path class="fil31" d="M8713 7848c0,-50 -40,-90 -90,-90 -50,0 -90,40 -90,90 0,50 40,90 90,90 50,0 90,-40 90,-90z"/>
  <path class="fil0" d="M9583 8323c0,-319 -259,-578 -578,-578 -319,0 -578,259 -578,578 0,319 259,578 578,578 319,0 578,-259 578,-578z"/>
  <path class="fil10" d="M8968 8297c41,-98 -54,-220 -178,-197 -124,22 -259,290 -180,371 79,81 301,-40 357,-174z"/>
  <path class="fil32" d="M8876 8272c0,-28 -23,-51 -51,-51 -28,0 -51,23 -51,51 0,28 23,51 51,51 28,0 51,-23 51,-51z"/>
  <path class="fil33" d="M8850 8272c0,-14 -11,-25 -25,-25 -14,0 -25,11 -25,25 0,14 11,25 25,25 14,0 25,-11 25,-25z"/>
  <path class="fil10" d="M9039 8297c-41,-98 54,-220 178,-197 124,22 259,290 180,371 -79,81 -301,-40 -357,-174z"/>
  <path class="fil32" d="M9131 8272c0,-28 23,-51 51,-51 28,0 51,23 51,51 0,28 -23,51 -51,51 -28,0 -51,-23 -51,-51z"/>
  <path class="fil33" d="M9157 8272c0,-14 11,-25 25,-25 14,0 25,11 25,25 0,14 -11,25 -25,25 -14,0 -25,-11 -25,-25z"/>
  <path class="fil10" d="M9041 8507c43,0 57,28 30,62l-17 22c-27,34 -71,34 -98,0l-17 -22c-27,-34 -13,-62 30,-62l71 0z"/>
  <path class="fil10" d="M8872 8650c0,0 75,24 132,-34 49,39 81,51 135,19 -55,61 -117,42 -136,37 -43,11 -119,9 -130,-23z"/>
  <path class="fil30" d="M9043 9059c0,-21 -17,-38 -38,-38 -21,0 -38,17 -38,38 0,21 17,38 38,38 21,0 38,-17 38,-38z"/>
  <path class="fil30" d="M9043 9190c0,-21 -17,-38 -38,-38 -21,0 -38,17 -38,38 0,21 17,38 38,38 21,0 38,-17 38,-38z"/>
  <path class="fil34" d="M2292 4800c56,-156 295,-215 295,-215 0,0 101,297 -8,430l-287 -215z"/>
  <path class="fil35" d="M2537 4677c0,0 -115,25 -173,128 -58,102 181,141 181,141 0,0 56,-156 -8,-268z"/>
  <path class="fil34" d="M1897 4821c-64,-153 -306,-199 -306,-199 0,0 -85,302 31,429l275 -230z"/>
  <path class="fil35" d="M1646 4711c0,0 116,19 180,118 63,99 -173,150 -173,150 0,0 -64,-153 -7,-268z"/>
  <path class="fil34" d="M2104 5670c-300,0 -553,218 -630,514 184,119 404,189 640,189 229,0 442,-65 623,-178 -73,-302 -329,-525 -633,-525z"/>
  <path class="fil34" d="M1559 5233c0,309 251,560 560,560 309,0 560,-251 560,-560 0,-309 -238,-456 -547,-456 -309,0 -573,147 -573,456z"/>
  <path class="fil13" d="M2333 5794c-29,-10 -172,73 -172,73 -9,-9 -21,-15 -35,-15 -14,0 -27,6 -35,15 0,0 -143,-87 -170,-71 -27,16 -28,185 0,202 28,17 173,-68 173,-68 9,8 20,13 33,13 13,0 24,-5 33,-13 0,0 150,88 173,68 23,-20 30,-195 1,-204z"/>
  <path class="fil10" d="M2153 6057c0,-18 -15,-33 -33,-33 -18,0 -33,15 -33,33 0,18 15,33 33,33 18,0 33,-15 33,-33z"/>
  <path class="fil0" d="M1833 5094c0,0 172,-50 168,125 0,0 -168,61 -168,-125z"/>
  <path class="fil10" d="M1964 5158c0,23 -19,42 -42,42 -23,0 -42,-19 -42,-42 0,-23 19,-42 42,-42 23,0 42,19 42,42z"/>
  <path class="fil0" d="M1951 5139c0,5 -4,10 -10,10 -5,0 -10,-4 -10,-10 0,-5 4,-10 10,-10 5,0 10,4 10,10z"/>
  <path class="fil0" d="M2424 5094c0,0 -172,-50 -168,125 0,0 168,61 168,-125z"/>
  <path class="fil10" d="M2293 5158c0,23 19,42 42,42 23,0 42,-19 42,-42 0,-23 -19,-42 -42,-42 -23,0 -42,19 -42,42z"/>
  <path class="fil0" d="M2306 5139c0,5 4,10 10,10 5,0 10,-4 10,-10 0,-5 -4,-10 -10,-10 -5,0 -10,4 -10,10z"/>
  <path class="fil10" d="M2346 5436c-3,0 -5,-1 -6,-4 -2,-3 0,-7 3,-9 12,-5 290,-130 395,-85 3,1 5,5 3,9 -1,3 -5,5 -9,3 -99,-42 -382,84 -384,85l-3 1z"/>
  <path class="fil10" d="M2410 5485c-3,0 -6,-3 -7,-6 0,-4 2,-7 6,-7 34,-3 332,-33 365,-17 3,2 5,6 3,9 -2,3 -5,5 -9,3 -23,-11 -227,5 -358,18l-1 0z"/>
  <path class="fil10" d="M2690 5606c-2,0 -4,-1 -5,-2 -32,-35 -181,-48 -235,-50 -4,0 -7,-3 -6,-7 0,-4 3,-6 7,-6 8,0 203,8 244,55 2,3 2,7 -1,9 -1,1 -3,2 -4,2z"/>
  <path class="fil10" d="M1891 5436c2,0 5,-1 6,-4 2,-3 0,-7 -3,-9 -12,-5 -290,-130 -395,-85 -3,1 -5,5 -3,9 1,3 5,5 9,3 99,-42 382,84 384,85l3 1z"/>
  <path class="fil10" d="M1827 5485c3,0 6,-3 7,-6 0,-4 -2,-7 -6,-7 -34,-3 -332,-33 -365,-17 -3,2 -5,6 -3,9 2,3 5,5 9,3 23,-11 227,5 358,18l1 0z"/>
  <path class="fil10" d="M1547 5606c2,0 4,-1 5,-2 32,-35 181,-48 235,-50 4,0 6,-3 6,-7 0,-4 -3,-6 -7,-6 -8,0 -203,8 -245,55 -2,3 -2,7 1,9 1,1 3,2 4,2z"/>
  <path class="fil0" d="M2285 5377c-76,0 -140,41 -165,97 -30,-45 -87,-75 -153,-75 -97,0 -176,66 -176,148 0,82 79,148 176,148 76,0 140,-41 165,-97 30,45 87,75 153,75 97,0 176,-66 176,-148 0,-82 -79,-148 -176,-148z"/>
  <path class="fil10" d="M2171 5345c49,0 65,32 34,70l-19 25c-30,39 -80,39 -111,0l-19 -25c-30,-39 -15,-70 34,-70l81 0z"/>
  <path class="fil10" d="M2569 5092c0,0 -29,10 -31,10 -2,0 -10,-7 -9,-12 1,-5 10,-10 12,-10 2,0 28,9 28,9l0 3zm-76 95c-6,30 -28,60 -40,74 -33,31 -78,31 -112,31 -86,-4 -103,-33 -124,-64 -25,-40 -24,-89 -20,-122 4,-33 30,-54 47,-62 17,-8 59,-13 59,-13 47,-4 105,1 131,8 27,6 37,14 48,26 11,11 15,38 15,38 3,14 1,55 -5,85zm-471 41c-21,31 -38,60 -124,64 -34,0 -79,0 -112,-31 -12,-13 -34,-44 -40,-74 -6,-30 -8,-72 -5,-85 0,0 5,-26 15,-38 11,-11 21,-20 48,-26 27,-6 84,-12 131,-8 0,0 42,5 59,13 17,8 43,29 47,62 4,33 5,83 -20,122zm-321 -126c-2,0 -31,-10 -31,-10l0 -3c0,0 26,-9 28,-9 2,0 11,5 12,10 1,5 -7,12 -9,12zm896 -36c-1,-6 -21,-11 -21,-11 0,0 -26,-6 -52,-17 -27,-10 -81,-30 -106,-34 -25,-3 -85,-7 -119,-2 -34,5 -68,12 -79,18 -11,6 -23,14 -28,18 -5,4 -10,8 -15,7 -5,-1 -15,-7 -15,-7 0,0 -27,0 -43,0 -16,0 -43,0 -43,0 0,0 -10,7 -15,7 -5,1 -10,-3 -15,-7 -5,-4 -16,-11 -28,-18 -11,-6 -45,-14 -79,-18 -34,-5 -94,-1 -119,2 -25,3 -79,23 -106,34 -27,11 -52,17 -52,17 0,0 -20,6 -21,11 -1,6 5,53 5,53 0,0 22,6 34,10 12,5 18,12 27,30 9,22 34,84 50,107 16,23 52,38 98,49 86,7 116,-13 144,-27 28,-15 44,-50 54,-67 10,-17 26,-85 27,-90 1,-6 -3,-12 -6,-16 -3,-5 -6,-14 -5,-20 1,-7 5,-14 19,-18 9,-3 22,-4 30,-5 8,1 21,2 30,5 14,5 18,12 19,18 1,7 -2,16 -5,20 -3,5 -7,10 -6,16 1,6 18,73 27,90 10,17 26,52 54,67 28,15 58,34 144,27 47,-11 82,-26 98,-49 16,-23 41,-85 50,-107 9,-18 15,-26 27,-30 12,-5 34,-10 34,-10 0,0 5,-47 5,-53z"/>
  <path class="fil36" d="M2113 8706c-320,0 -590,223 -677,530 192,135 426,214 678,214 252,0 485,-79 677,-213 -87,-307 -358,-530 -678,-530z"/>
  <path class="fil36" d="M3084 8060c0,132 -107,238 -238,238 -132,0 -238,-107 -238,-238 0,-132 107,-238 238,-238 132,0 238,107 238,238z"/>
  <path class="fil37" d="M3001 8060c0,86 -70,155 -155,155 -86,0 -155,-70 -155,-155 0,-86 70,-155 155,-155 86,0 155,70 155,155z"/>
  <path class="fil36" d="M1620 8060c0,132 -107,238 -238,238 -132,0 -238,-107 -238,-238 0,-132 107,-238 238,-238 132,0 238,107 238,238z"/>
  <path class="fil37" d="M1537 8060c0,86 -70,155 -155,155 -86,0 -155,-70 -155,-155 0,-86 70,-155 155,-155 86,0 155,70 155,155z"/>
  <path class="fil36" d="M2113 7504c-371,0 -671,300 -671,671 0,371 300,671 671,671 371,0 671,-300 671,-671 0,-371 -300,-671 -671,-671z"/>
  <path class="fil37" d="M2705 8125c0,-166 -135,-301 -301,-301 -140,0 -258,96 -291,226 -33,-130 -151,-226 -291,-226 -166,0 -301,135 -301,301 0,166 135,301 301,301l0 155c0,166 135,301 301,301 166,0 301,-135 301,-301l0 -156c157,-10 281,-140 281,-300z"/>
  <path class="fil12" d="M2003 8154c0,34 -28,62 -62,62 -34,0 -62,-28 -62,-62 0,-34 28,-62 62,-62 34,0 62,28 62,62z"/>
  <path class="fil12" d="M2348 8154c0,34 -28,62 -62,62 -34,0 -62,-28 -62,-62 0,-34 28,-62 62,-62 34,0 62,28 62,62z"/>
  <path class="fil0" d="M1982 8134c0,11 -9,21 -21,21 -11,0 -21,-9 -21,-21 0,-11 9,-21 21,-21 11,0 21,9 21,21z"/>
  <path class="fil0" d="M2327 8134c0,11 -9,21 -21,21 -11,0 -21,-9 -21,-21 0,-11 9,-21 21,-21 11,0 21,9 21,21z"/>
  <path class="fil36" d="M2176 8362c61,0 81,40 43,88l-24 31c-38,48 -100,48 -138,0l-24 -31c-38,-48 -19,-88 43,-88l101 0z"/>
  <path class="fil12" d="M2113 8432c0,18 -15,33 -33,33 -18,0 -33,-15 -33,-33 0,-18 15,-33 33,-33 18,0 33,15 33,33z"/>
  <path class="fil12" d="M2211 8432c0,18 -15,33 -33,33 -18,0 -33,-15 -33,-33 0,-18 15,-33 33,-33 18,0 33,15 33,33z"/>
  <path class="fil12" d="M2124 8529c0,0 -54,-26 -106,0 -52,26 -100,71 -130,9 0,0 -1,97 118,86 119,-12 123,-79 118,-95z"/>
  <path class="fil12" d="M2127 8529c0,0 54,-26 106,0 52,26 100,71 130,9 0,0 1,97 -118,86 -119,-12 -123,-79 -118,-95z"/>
  <path class="fil13" d="M2636 8025c-12,0 -22,-2 -22,-5 0,-3 10,-5 22,-5 12,0 22,2 22,5 0,3 -10,5 -22,5zm-38 106c-1,39 -8,78 -22,115 -6,15 -13,29 -25,40 -13,13 -29,19 -46,24 -21,6 -43,7 -66,7 -33,0 -66,-4 -99,-11 -32,-7 -58,-24 -79,-49 -26,-33 -43,-70 -53,-111 -4,-19 -8,-38 -8,-57 0,-8 1,-17 3,-25 4,-21 16,-34 35,-42 19,-8 39,-12 59,-17 22,-4 45,-8 68,-9 18,-1 36,-2 48,-2 48,2 90,6 130,18 8,2 15,6 22,9 7,3 12,8 15,15 4,7 7,15 10,22 3,9 4,19 5,28 1,15 1,30 1,45zm-586 12c-8,33 -20,63 -37,92 -9,16 -20,31 -33,43 -18,17 -39,27 -62,33 -47,12 -95,15 -143,8 -9,-1 -19,-4 -28,-6 -19,-5 -34,-16 -45,-32 -12,-18 -20,-38 -25,-59 -7,-27 -10,-55 -13,-84 -2,-16 -1,-33 1,-49 1,-8 2,-16 4,-24 7,-28 24,-46 52,-54 26,-7 52,-11 79,-13 20,-2 39,-2 52,-3 45,1 83,3 121,12 15,4 31,7 45,14 7,4 14,8 20,13 10,8 15,19 17,32 4,26 2,52 -4,77zm-423 -118c-12,0 -22,-2 -22,-5 0,-3 10,-5 22,-5 12,0 22,2 22,5 0,3 -10,5 -22,5zm1093 -35c0,-4 -2,-6 -5,-7 -2,-1 -5,-1 -7,-2 -36,-6 -71,-11 -107,-14 -29,-2 -58,-3 -86,-5 -55,-2 -111,-1 -166,6 -34,4 -67,10 -99,21 -16,5 -32,11 -49,17 -26,8 -52,12 -78,7 -16,-3 -32,-8 -47,-13 -28,-9 -56,-18 -85,-23 -56,-10 -113,-15 -166,-15 -43,0 -82,2 -121,6 -32,4 -63,8 -95,12 -7,1 -13,3 -20,5 -4,1 -6,3 -6,7 -1,19 -1,37 -2,56 0,3 1,6 1,8 0,2 2,4 4,5 2,1 5,2 7,4 10,7 15,18 19,30 3,8 5,17 7,25 1,5 3,10 5,15 5,24 11,49 16,73 5,23 12,46 24,67 12,24 30,42 55,53 15,6 31,10 47,13 29,5 58,5 88,3 30,-2 59,-7 88,-15 21,-6 41,-15 58,-30 26,-22 47,-48 63,-79 16,-30 27,-62 37,-95 3,-9 6,-19 9,-28 5,-13 15,-22 29,-24 5,-1 9,-1 14,-1 11,1 21,3 28,12 3,4 6,8 8,13 4,9 8,18 11,27 13,40 30,78 51,115 18,30 41,55 72,71 22,12 45,20 70,24 37,7 74,9 111,7 22,-1 45,-4 66,-10 22,-7 42,-17 56,-36 9,-12 16,-25 22,-39 12,-30 20,-60 27,-91 3,-15 7,-30 11,-45 2,-8 4,-16 7,-24 2,-7 4,-15 8,-21 5,-6 9,-13 17,-15 3,-1 5,-4 6,-7 1,-3 1,-5 1,-8 0,-11 0,-22 0,-34 0,-8 -1,-16 -2,-24z"/>
  <path class="fil0" d="M6250 8816c-16,-51 -37,-101 -63,-144 -32,-52 -54,-109 -70,-165 -27,-95 -35,-187 -38,-242 0,-2 0,-4 0,-6 0,-9 -1,-19 -1,-28 0,-11 0,-18 0,-18l-1 1c-23,-266 -246,-475 -518,-475l0 0c-272,0 -494,208 -518,474l0 0c0,0 0,2 0,4 -1,14 -2,28 -2,42 0,4 0,9 1,13 -3,52 -11,134 -33,221 -16,61 -39,123 -74,180 -25,41 -45,88 -61,136 -50,151 -60,317 -62,377 203,166 463,266 746,266 286,0 549,-102 753,-272 -2,-62 -13,-218 -59,-363z"/>
  <polygon class="fil38" points="6344,8999 6344,8999 6345,9000 6346,9001 "/>
  <path class="fil39" d="M5626 7174c29,69 41,132 53,186 6,28 11,44 18,71 6,28 12,62 13,98 3,71 -10,151 -40,222 -31,71 -78,135 -144,175 -12,-78 -17,-139 -21,-194 -5,-56 -9,-104 -10,-158 -1,-27 -1,-55 -1,-89 0,-35 6,-82 17,-117 23,-73 59,-137 116,-195z"/>
  <path class="fil40" d="M5773 8036c-96,0 -178,55 -213,134l0 -1c-35,-79 -117,-134 -213,-134 -128,0 -231,98 -231,220 0,121 104,220 231,220 96,0 178,14 213,-64l0 -1c35,79 117,65 213,65 128,0 231,-98 231,-220 0,-121 -104,-220 -231,-220z"/>
  <path class="fil39" d="M5463 8440c0,0 -334,853 -72,914 263,61 141,-696 134,-742l-63 -171z"/>
  <path class="fil39" d="M5655 8440c0,0 334,853 72,914 -263,61 -141,-696 -134,-742l63 -171z"/>
  <path class="fil41" d="M5662 8443l-59 -29c-12,-6 -28,-9 -43,-9 -16,0 -31,3 -43,9l-59 29c-24,11 -31,36 -17,53l93 114c7,9 17,13 27,13 10,0 19,-4 26,-13l93 -114c15,-18 7,-42 -17,-53z"/>
  <path class="fil0" d="M5278 8209c0,0 172,-50 168,125 0,0 -168,61 -168,-125z"/>
  <path class="fil10" d="M5409 8273c0,23 -19,42 -42,42 -23,0 -42,-19 -42,-42 0,-23 19,-42 42,-42 23,0 42,19 42,42z"/>
  <path class="fil0" d="M5395 8254c0,5 -4,10 -10,10 -5,0 -10,-4 -10,-10 0,-5 4,-10 10,-10 5,0 10,4 10,10z"/>
  <path class="fil0" d="M5870 8209c0,0 -172,-50 -168,125 0,0 168,61 168,-125z"/>
  <path class="fil10" d="M5729 8273c0,23 19,42 42,42 23,0 42,-19 42,-42 0,-23 -19,-42 -42,-42 -23,0 -42,19 -42,42z"/>
  <path class="fil0" d="M5744 8261c0,5 4,10 10,10 5,0 10,-4 10,-10 0,-5 -4,-10 -10,-10 -5,0 -10,4 -10,10z"/>
  <path class="fil12" d="M5467 8340c-25,70 -130,74 -151,74 -4,0 -8,0 -12,0 -93,-5 -160,-65 -216,-195 -12,-27 -13,-47 -5,-60 11,-17 42,-26 91,-26 38,0 81,5 119,10 9,1 18,2 26,3 92,10 146,30 165,60 19,31 3,78 -17,132l-1 2zm184 0l-1 -2c-11,-31 -21,-60 -24,-85l0 0 -1 0c-2,-18 0,-33 8,-46 19,-30 73,-50 165,-60 8,-1 17,-2 26,-3 38,-4 80,-10 119,-10 50,0 80,9 91,26 8,13 7,33 -5,60 -56,130 -123,190 -216,195 -4,0 -8,0 -12,0 -21,0 -126,-4 -151,-74zm411 -199c-5,-8 -12,-15 -21,-20 -21,-14 -53,-20 -98,-20 -40,0 -84,5 -123,10 -9,1 -18,2 -26,3 -106,12 -164,35 -189,75 -8,13 -12,28 -14,43 -24,-8 -47,-5 -66,3 -1,-16 -5,-31 -14,-46 -25,-40 -84,-63 -189,-75 -8,-1 -17,-2 -26,-3 -39,-5 -82,-10 -123,-10 -9,0 -17,0 -25,1 -48,3 -78,16 -94,40 -9,13 -12,29 -10,47 1,13 5,28 12,44 61,141 139,209 245,215 4,0 9,0 14,0 71,0 157,-25 182,-96l1 -2c9,-27 18,-52 23,-75 3,-3 9,-6 17,-10 12,-5 29,-8 47,0 3,1 6,3 9,5 5,25 14,52 24,80l1 2c25,71 110,96 182,96 5,0 9,0 14,0 106,-5 184,-74 245,-215 7,-16 11,-30 12,-43 2,-19 -1,-35 -10,-48z"/>
  <path class="fil29" d="M3294 2129c0,-652 -529,-1181 -1181,-1181 -652,0 -1181,529 -1181,1181 0,652 529,1181 1181,1181 652,0 1181,-529 1181,-1181z"/>
  <path class="fil10" d="M2020 2503c-285,0 -526,245 -602,580 195,143 436,227 696,227 189,0 368,-45 527,-124 -30,-253 -152,-468 -321,-586 -89,-62 -191,-97 -299,-97z"/>
  <polygon class="fil42" points="1733,2555 2019,3306 2022,3306 2329,2572 "/>
  <path class="fil30" d="M1744 2572l275 735 -3 0 -307 -304 77 -95 -189 -233 148 -102zm277 735l296 -707 185 48 -168 218 98 42 -408 400 -2 0z"/>
  <path class="fil43" d="M2198 1660c-63,0 -207,0 -207,0 0,0 -144,0 -207,0 -63,0 -210,91 -210,232 0,141 25,335 125,463 100,128 -38,319 291,319 329,0 191,-191 291,-319 100,-128 125,-322 125,-463 0,-141 -147,-232 -210,-232z"/>
  <path class="fil0" d="M1958 1714c0,0 -4,301 -88,430 -83,129 -255,459 -96,505 159,46 175,-121 230,-121 54,0 87,141 250,109 137,-27 48,-289 -96,-487 -130,-179 -113,-436 -113,-436l-88 0z"/>
  <path class="fil13" d="M2366 1926c-8,0 -15,-2 -15,-4 0,-2 7,-4 15,-4 8,0 15,2 15,4 0,2 -7,4 -15,4zm-26 74c-1,27 -5,54 -15,80 -4,10 -9,20 -17,28 -9,9 -20,13 -32,17 -15,4 -30,5 -46,5 -23,0 -46,-3 -69,-8 -23,-5 -41,-17 -55,-34 -18,-23 -30,-49 -37,-77 -3,-13 -6,-26 -5,-40 0,-6 1,-12 2,-17 3,-14 11,-24 25,-29 13,-5 27,-9 41,-11 16,-3 31,-5 47,-6 12,-1 25,-1 33,-2 33,2 62,4 91,12 5,1 10,4 15,6 5,2 8,6 11,10 3,5 5,10 7,16 2,6 3,13 3,20 0,11 1,21 1,32zm-408 8c-5,23 -14,44 -26,64 -6,11 -14,21 -23,30 -12,12 -27,19 -43,23 -33,9 -66,11 -99,6 -7,-1 -13,-3 -19,-4 -13,-3 -23,-11 -31,-23 -8,-13 -14,-27 -17,-41 -5,-19 -7,-39 -9,-58 -1,-11 -1,-23 1,-34 1,-6 1,-11 2,-17 5,-20 17,-32 36,-37 18,-5 36,-7 55,-9 14,-1 27,-2 36,-2 32,0 58,2 84,8 11,2 21,5 31,10 5,3 9,6 14,9 7,6 10,13 12,22 3,18 1,36 -3,54zm-295 -82c-8,0 -15,-2 -15,-4 0,-2 7,-4 15,-4 8,0 15,2 15,4 0,2 -7,4 -15,4zm761 -25c0,-3 -1,-4 -4,-5 -2,0 -3,-1 -5,-1 -25,-4 -50,-8 -75,-9 -20,-1 -40,-2 -60,-3 -39,-2 -77,-1 -115,4 -23,3 -47,7 -69,14 -11,4 -23,8 -34,12 -18,6 -36,8 -55,5 -11,-2 -22,-5 -33,-9 -19,-6 -39,-13 -59,-16 -39,-7 -79,-11 -116,-10 -30,0 -57,1 -84,4 -22,3 -44,6 -66,9 -5,1 -9,2 -14,3 -2,1 -4,2 -4,5 0,13 -1,26 -1,39 0,2 0,4 1,6 0,2 1,3 3,4 2,1 3,1 5,3 7,5 11,13 14,21 2,6 3,12 5,17 1,4 2,7 3,11 4,17 7,34 11,51 4,16 9,32 16,47 9,17 21,29 38,37 11,4 22,7 33,9 20,3 41,4 61,2 21,-1 41,-5 61,-11 15,-4 29,-11 41,-21 18,-15 33,-34 44,-55 11,-21 19,-43 26,-66 2,-7 4,-13 6,-19 4,-9 10,-15 20,-17 3,-1 7,-1 10,0 8,0 15,2 20,8 2,3 4,6 6,9 3,6 5,13 7,19 9,28 21,55 35,80 12,21 29,38 50,50 15,8 31,14 48,17 25,5 51,6 77,5 16,-1 31,-3 46,-7 15,-5 29,-12 39,-25 7,-8 11,-18 15,-27 8,-21 14,-42 19,-64 2,-11 5,-21 7,-32 1,-6 3,-11 5,-16 1,-5 3,-10 6,-15 3,-4 7,-9 12,-11 2,-1 4,-3 4,-5 0,-2 1,-4 1,-5 0,-8 0,-16 0,-23 0,-6 -1,-11 -1,-17z"/>
  <path class="fil0" d="M2299 1951c0,0 -146,-42 -143,106 0,0 143,52 143,-106z"/>
  <path class="fil10" d="M2180 1997c0,20 16,35 35,35 20,0 35,-16 35,-35 0,-20 -16,-35 -35,-35 -20,0 -35,16 -35,35z"/>
  <path class="fil0" d="M2199 1994c0,5 4,8 8,8 5,0 8,-4 8,-8 0,-5 -4,-8 -8,-8 -5,0 -8,4 -8,8z"/>
  <path class="fil0" d="M1732 1951c0,0 146,-42 143,106 0,0 -143,52 -143,-106z"/>
  <path class="fil10" d="M1851 1997c0,20 -16,35 -35,35 -20,0 -35,-16 -35,-35 0,-20 16,-35 35,-35 20,0 35,16 35,35z"/>
  <path class="fil0" d="M1832 1994c0,5 -4,8 -8,8 -5,0 -8,-4 -8,-8 0,-5 4,-8 8,-8 5,0 8,4 8,8z"/>
  <path class="fil44" d="M1735 1676c0,0 -391,121 -371,439 20,318 98,482 206,484 107,2 160,-93 132,-381 -28,-289 34,-542 34,-542z"/>
  <path class="fil44" d="M2256 1676c0,0 391,121 371,439 -20,318 -98,482 -206,484 -107,2 -114,-95 -86,-384 28,-289 -79,-539 -79,-539z"/>
  <path class="fil10" d="M2055 2405c48,0 63,31 34,69l-19 24c-30,38 -79,38 -108,0l-19 -24c-30,-38 -15,-69 34,-69l79 0z"/>
  <path class="fil10" d="M2016 2528c0,0 -73,-9 -95,43 -22,52 -78,108 -112,88 -49,-28 -28,-88 18,-102 -32,-32 -120,48 -53,112 70,66 208,-4 242,-77 0,-44 0,-64 0,-64z"/>
  <path class="fil10" d="M2016 2528c0,0 73,-9 95,43 22,52 78,108 112,88 49,-28 28,-88 -18,-102 32,-32 120,48 53,112 -70,66 -208,-4 -242,-77 0,-44 0,-64 0,-64z"/>
  <path class="fil13" d="M2431 1584c-16,-182 -194,-69 -194,-69 0,0 0,-38 0,-169 0,-181 -199,-79 -220,-79 -21,0 -220,-102 -220,79 0,131 0,169 0,169 0,0 -177,-113 -194,69 -16,182 166,184 166,184l496 0c0,0 182,-2 166,-184z"/>
  <path class="fil0" d="M2237 1515c0,0 -22,68 -220,68 -198,0 -220,-68 -220,-68 0,0 -44,50 -15,97 36,57 134,74 235,74 101,0 199,-16 235,-74 29,-47 -15,-97 -15,-97z"/>
  <path class="fil45" d="M6190 5596c0,-460 -293,-833 -654,-833 -361,0 -654,373 -654,833 0,314 136,587 337,729 107,32 220,49 337,49 93,0 183,-11 270,-31 216,-136 364,-419 364,-746z"/>
  <path class="fil46" d="M5959 5020c0,-221 -361,-260 -361,-260l-124 0c0,0 -361,39 -361,260 0,221 -4,485 105,680 109,194 93,466 318,482 225,-16 210,-287 318,-482 109,-194 105,-458 105,-680z"/>
  <path class="fil0" d="M5800 4635c0,0 304,-69 280,-302 101,206 -50,365 -179,458l-102 -156z"/>
  <path class="fil0" d="M5269 4635c0,0 -304,-69 -280,-302 -101,206 50,365 179,458l102 -156z"/>
  <path class="fil46" d="M5865 4857c0,0 153,-192 400,-140 -31,126 -113,243 -311,289l-89 -150z"/>
  <path class="fil45" d="M5904 4905c0,0 158,-140 285,-113 -16,65 -143,181 -245,205l-40 -92z"/>
  <path class="fil46" d="M5202 4857c0,0 -153,-192 -400,-140 31,126 113,243 311,289l89 -150z"/>
  <path class="fil45" d="M5163 4905c0,0 -158,-140 -285,-113 16,65 143,181 245,205l40 -92z"/>
  <path class="fil0" d="M5652 5538c0,-194 6,-379 169,-539 163,-160 115,-283 19,-367 -95,-84 -235,-70 -305,-70 -70,0 -210,-15 -305,70 -95,84 -144,207 19,367 163,160 169,345 169,539 0,150 -97,237 -157,305 -60,68 -26,202 44,202 70,0 230,0 230,0 0,0 160,0 230,0 70,0 104,-134 44,-202 -60,-68 -157,-155 -157,-305z"/>
  <path class="fil0" d="M5907 5148c0,0 -172,-50 -168,125 0,0 168,61 168,-125z"/>
  <path class="fil10" d="M5766 5202c0,23 19,42 42,42 23,0 42,-19 42,-42 0,-23 -19,-42 -42,-42 -23,0 -42,19 -42,42z"/>
  <path class="fil0" d="M5789 5198c0,5 4,10 10,10 5,0 10,-4 10,-10 0,-5 -4,-10 -10,-10 -5,0 -10,4 -10,10z"/>
  <path class="fil0" d="M5158 5148c0,0 172,-50 168,125 0,0 -168,61 -168,-125z"/>
  <path class="fil10" d="M5298 5202c0,23 -19,42 -42,42 -23,0 -42,-19 -42,-42 0,-23 19,-42 42,-42 23,0 42,19 42,42z"/>
  <path class="fil0" d="M5276 5198c0,5 -4,10 -10,10 -5,0 -10,-4 -10,-10 0,-5 4,-10 10,-10 5,0 10,4 10,10z"/>
  <path class="fil12" d="M5528 6041c0,0 -76,-36 -149,0 -73,36 -140,100 -182,13 0,0 -2,137 166,120 167,-16 173,-111 166,-133z"/>
  <path class="fil12" d="M5532 6041c0,0 76,-36 149,0 73,36 140,100 182,13 0,0 2,137 -166,120 -167,-16 -173,-111 -166,-133z"/>
 </g>
</svg>
