<svg id="Layer_1" data-name="Layer 1" xmlns="http://www.w3.org/2000/svg" viewBox="0 0 500 200"><defs><style>.cls-1{fill:#00a99d;}.cls-2{fill:#d39c5b;}.cls-3{fill:#e2c59b;}.cls-4{fill:#be7447;}.cls-5{fill:#191009;}.cls-6{fill:#fff;}</style></defs><title>Artboard 3</title><rect class="cls-1" width="500" height="199.15"/><path class="cls-2" d="M288.3,200.88c.46-3.15.71-17.47.71-20.8,0-28.8-17.84-52.14-39.85-52.14s-39.84,23.34-39.84,52.14c0,3.33.25,17.65.71,20.8Z"/><path class="cls-3" d="M230.49,141.5s-11.36,26.05-4.53,36,22.92,23.37,22.92,23.37,25.28-16.86,25.66-29.69-7.28-33.52-7.28-33.52"/><path class="cls-4" d="M224.77,137.86c8,6.13,8.24,9.77,9.32,19.92,2.43,19.16,10.6,18.58,15.07,18.58v-36.2S229,124.07,219.28,118C218.2,122.43,216.73,131.73,224.77,137.86Z"/><path class="cls-4" d="M279,118c-9.7,6.11-29.88,22.2-29.88,22.2v36.2c4.47,0,12.65.58,15.07-18.58,1.09-10.15,1.28-13.79,9.32-19.92S280.12,122.43,279,118Z"/><path class="cls-4" d="M271.64,90.28s14.51-13,32.23-5.26c-4.3,9.59-12.23,17.66-27.84,18.47"/><path class="cls-5" d="M272.85,94.64s15.07-8.87,24.18-4.86c-2.21,4.93-13.59,12.32-21.62,12.74"/><path class="cls-4" d="M226,89.44s-14.51-13-32.23-5.26c4.3,9.59,12.23,17.67,27.84,18.47"/><path class="cls-5" d="M224.83,93.8S209.76,84.94,200.65,89c2.21,4.93,13.59,12.32,21.62,12.73"/><path class="cls-2" d="M276.23,87.61l-8.17-4.08-18.9,7.66-18.9-7.66-8.17,4.08s.51,20.69-3.06,31.16c8.42,2.56,17.62,18.65,22.47,35.25h15.32c4.86-16.6,14.05-32.69,22.48-35.25C275.72,108.3,276.23,87.61,276.23,87.61Z"/><path class="cls-5" d="M252.77,151.83c4.39,0,5.77,2.83,3,6.29l-1.73,2.21a6,6,0,0,1-9.86,0l-1.73-2.21c-2.71-3.46-1.34-6.29,3.05-6.29Z"/><path class="cls-6" d="M278.09,123s-13.28-3.86-13,9.65c0,0,13,4.71,13-9.65"/><path class="cls-5" d="M267.24,127.18a3.22,3.22,0,1,0,3.22-3.22A3.22,3.22,0,0,0,267.24,127.18Z"/><path class="cls-6" d="M269,126.88a.76.76,0,1,0,.75-.75A.76.76,0,0,0,269,126.88Z"/><path class="cls-6" d="M220.24,123s13.27-3.86,13,9.65c0,0-13,4.71-13-9.65"/><path class="cls-5" d="M231.08,127.18a3.22,3.22,0,1,1-3.22-3.22A3.22,3.22,0,0,1,231.08,127.18Z"/><path class="cls-6" d="M229.37,126.88a.75.75,0,0,1-.75.76.76.76,0,1,1,0-1.51A.75.75,0,0,1,229.37,126.88Z"/><path d="M265.79,179.19C263.49,178.43,252,185,252,185a3.92,3.92,0,0,0-5.68,0s-11.49-7-13.67-5.67-2.26,14.87,0,16.21,13.88-5.46,13.88-5.46a3.92,3.92,0,0,0,5.25,0s12,7.05,13.88,5.46S268.09,180,265.79,179.19Z"/><path class="cls-5" d="M249.16,163s-5-.63-6.55,3-5.37,7.42-7.73,6.07c-3.39-1.94-1.93-6.07,1.25-7-2.21-2.21-8.28,3.34-3.66,7.71,4.84,4.57,14.35-.26,16.69-5.3Z"/><path class="cls-5" d="M249.16,163s5-.63,6.56,3,5.37,7.42,7.73,6.07c3.39-1.94,1.93-6.07-1.24-7,2.2-2.21,8.28,3.34,3.65,7.71-4.84,4.57-14.35-.26-16.7-5.3Z"/><path d="M228.48,115.66a14.5,14.5,0,1,0,14.5,14.5A14.5,14.5,0,0,0,228.48,115.66Zm0,26.56a12.06,12.06,0,1,1,12.06-12.06A12.05,12.05,0,0,1,228.48,142.22Z"/><rect x="209.1" y="128.71" width="7.1" height="2.9"/><rect x="209.1" y="130.16" width="2.67" height="57.85"/><path class="cls-2" d="M222.83,90S218.45,74.5,211.4,72.17s-16.18-2.33-31.2-.83-35.87-5-47.51-23.65-1.54-12.06,1.49-6.83,17.47,20.43,29.31,22.94,24.29.81,25.59-4-15-26.31-22.33-30.69-9-12.49,1.13-4.33,19.91,18.8,30.21,36.86c4.24,2,14.2,4.78,18.23,2.19s-1-26.75-9.36-35.11-15.85-13-23.17-12.2-6.07-5.89,3.41-3.82,30.53,1.55,36.94,35.65c1.68,8.92-.91,22.46-.91,22.46l7.69,14Z"/><path class="cls-2" d="M275.63,89.83S280,74.38,287.06,72.05s16.18-2.33,31.2-.84,35.87-5,47.51-23.65,1.54-12.06-1.49-6.82S346.81,61.16,335,63.67s-24.29.81-25.58-4S324.32,33.34,331.71,29s9-12.49-1.13-4.32-19.91,18.79-30.21,36.85c-4.24,2-14.2,4.78-18.23,2.19s1.05-26.74,9.36-35.11,15.85-13,23.17-12.19,6.07-5.89-3.41-3.83S280.73,14.1,274.31,48.2c-1.67,8.91.92,22.45.92,22.45l-7.69,14Z"/></svg>