<svg id="Layer_1" data-name="Layer 1" xmlns="http://www.w3.org/2000/svg" viewBox="0 0 500 200"><defs><style>.cls-1{fill:#d9e021;}.cls-2{fill:#191009;}.cls-3{fill:#434345;}.cls-4{fill:#3e3d42;}.cls-5{fill:#fcfcfc;}.cls-6{fill:#4e4741;}.cls-7{fill:#e3e1e2;}</style></defs><title>Artboard 9</title><rect class="cls-1" width="500" height="200"/><path class="cls-2" d="M249.16,128.41c-38.13,0-69,32.52-69,72.63H318.21C318.21,160.93,287.3,128.41,249.16,128.41Z"/><polygon class="cls-3" points="218.79 134.57 249.17 201.04 281.88 137.06 302.19 141.38 283.68 160.98 294.5 164.72 249.17 201.04 214.91 173.28 223.38 164.72 202.55 143.79 218.79 134.57"/><path class="cls-2" d="M223.38,42.39A13.19,13.19,0,1,0,210.2,55.57,13.18,13.18,0,0,0,223.38,42.39Z"/><path class="cls-2" d="M301.11,42.39a13.19,13.19,0,1,0-13.19,13.18A13.18,13.18,0,0,0,301.11,42.39Z"/><path class="cls-4" d="M294.5,44.58a8.77,8.77,0,1,0-8.77,8.77A8.77,8.77,0,0,0,294.5,44.58Z"/><path class="cls-4" d="M220.61,44.58a8.77,8.77,0,1,0-8.77,8.77A8.77,8.77,0,0,0,220.61,44.58Z"/><path class="cls-5" d="M305.55,91a56.48,56.48,0,1,0-56.48,56.48A56.48,56.48,0,0,0,305.55,91Z"/><path class="cls-2" d="M245.55,88.41c4-9.53-5.27-21.44-17.34-19.25S203,97.48,210.65,105.38,240.06,101.52,245.55,88.41Z"/><path class="cls-6" d="M236.55,86a5,5,0,1,0-5,5A5,5,0,0,0,236.55,86Z"/><path class="cls-7" d="M234,86a2.43,2.43,0,1,0-2.42,2.42A2.42,2.42,0,0,0,234,86Z"/><path class="cls-2" d="M252.44,88.41c-4-9.53,5.26-21.44,17.33-19.25S295,97.48,287.33,105.38,257.92,101.52,252.44,88.41Z"/><path class="cls-6" d="M261.43,86a5,5,0,1,1,5,5A5,5,0,0,1,261.43,86Z"/><path class="cls-7" d="M264,86a2.42,2.42,0,1,1,2.42,2.42A2.42,2.42,0,0,1,264,86Z"/><path class="cls-2" d="M252.65,108.92c4.24,0,5.57,2.74,2.95,6.07l-1.67,2.14a5.78,5.78,0,0,1-9.53,0L242.73,115c-2.62-3.33-1.29-6.07,3-6.07Z"/><path class="cls-2" d="M236.16,122.93s7.35,2.3,12.84-3.3c4.83,3.85,7.9,5,13.17,1.89-5.38,5.91-11.46,4.07-13.33,3.63C244.68,126.25,237.26,126,236.16,122.93Z"/><path class="cls-3" d="M252.86,162.85a3.7,3.7,0,1,0-3.69,3.7A3.69,3.69,0,0,0,252.86,162.85Z"/><path class="cls-3" d="M252.86,175.65a3.7,3.7,0,1,0-3.69,3.69A3.69,3.69,0,0,0,252.86,175.65Z"/></svg>