<svg id="Layer_1" data-name="Layer 1" xmlns="http://www.w3.org/2000/svg" viewBox="0 0 500 200"><defs><style>.cls-1{fill:#2e3192;}.cls-2{fill:#ed521a;}.cls-3{fill:#982508;}.cls-4{fill:#191009;}.cls-5{fill:#fff;}</style></defs><title>Artboard 4</title><rect class="cls-1" width="500" height="200"/><path class="cls-2" d="M267.25,37.42c5.79-16.18,30.57-22.31,30.57-22.31s10.52,30.77-.82,44.6"/><path class="cls-3" d="M292.69,24.63s-11.95,2.62-17.93,13.24,18.73,14.6,18.73,14.6,5.78-16.18-.8-27.84"/><path class="cls-2" d="M226.32,39.56C219.65,23.73,194.58,19,194.58,19s-8.83,31.3,3.25,44.48"/><path class="cls-3" d="M200.22,28.19s12.06,2,18.63,12.24S201,56,201,56s-6.66-15.83-.73-27.84"/><path class="cls-2" d="M247.74,127.67c-37.48,0-67.86,32.65-67.86,72.92H315.59C315.59,160.32,285.22,127.67,247.74,127.67Z"/><path class="cls-2" d="M191.19,82.35a58.09,58.09,0,1,0,116.17,0c0-32.08-24.69-47.28-56.77-47.28S191.19,50.27,191.19,82.35Z"/><path d="M271.51,140.52c-3-1-17.82,7.54-17.82,7.54a5.05,5.05,0,0,0-7.34,0s-14.86-9-17.69-7.34-2.93,19.24,0,21,18-7.07,18-7.07a5.08,5.08,0,0,0,6.8,0s15.53,9.12,18,7.06S274.48,141.5,271.51,140.52Z"/><path class="cls-4" d="M252.81,167.8a3.42,3.42,0,1,0-3.42,3.42A3.42,3.42,0,0,0,252.81,167.8Z"/><path class="cls-5" d="M219.66,67.91s17.86-5.18,17.46,13c0,0-17.46,6.34-17.46-13"/><path class="cls-4" d="M233.24,74.56a4.34,4.34,0,1,1-4.33-4.33A4.33,4.33,0,0,1,233.24,74.56Z"/><path class="cls-5" d="M232,72.53a1,1,0,0,1-2,0,1,1,0,1,1,2,0Z"/><path class="cls-5" d="M281,67.91s-17.86-5.18-17.46,13c0,0,17.46,6.34,17.46-13"/><path class="cls-4" d="M267.43,74.56a4.33,4.33,0,1,0,4.33-4.33A4.33,4.33,0,0,0,267.43,74.56Z"/><path class="cls-5" d="M268.71,72.53a1,1,0,1,0,1-1A1,1,0,0,0,268.71,72.53Z"/><path class="cls-4" d="M272.84,103.42a.67.67,0,0,1-.62-.4.69.69,0,0,1,.34-.9c1.23-.55,30.13-13.44,41-8.86a.69.69,0,0,1,.36.89.7.7,0,0,1-.9.36c-10.3-4.37-39.58,8.72-39.88,8.85A.67.67,0,0,1,272.84,103.42Z"/><path class="cls-4" d="M279.51,108.44a.68.68,0,0,1-.07-1.36c3.51-.35,34.4-3.42,37.86-1.74a.68.68,0,1,1-.59,1.22c-2.36-1.14-23.5.5-37.14,1.87Z"/><path class="cls-4" d="M308.56,121.06a.68.68,0,0,1-.5-.22c-3.28-3.68-18.73-5-24.39-5.24a.67.67,0,0,1-.66-.7.71.71,0,0,1,.7-.66c.86,0,21,.83,25.36,5.69a.68.68,0,0,1-.05,1A.66.66,0,0,1,308.56,121.06Z"/><path class="cls-4" d="M225.71,103.42a.66.66,0,0,0,.62-.4.68.68,0,0,0-.34-.9c-1.23-.55-30.12-13.44-41-8.86a.67.67,0,0,0-.36.89.68.68,0,0,0,.89.36c10.31-4.37,39.59,8.72,39.88,8.85A.71.71,0,0,0,225.71,103.42Z"/><path class="cls-4" d="M219.05,108.44a.7.7,0,0,0,.68-.62.69.69,0,0,0-.61-.74c-3.51-.35-34.41-3.42-37.87-1.74a.68.68,0,1,0,.59,1.22c2.36-1.14,23.5.5,37.14,1.87Z"/><path class="cls-4" d="M190,121.06a.67.67,0,0,0,.51-.22c3.29-3.68,18.73-5,24.4-5.24a.68.68,0,0,0,.66-.7.73.73,0,0,0-.71-.66c-.86,0-21,.83-25.36,5.69a.67.67,0,0,0,.06,1A.63.63,0,0,0,190,121.06Z"/><path class="cls-5" d="M266.51,97.28c-7.88,0-14.58,4.2-17.13,10.08-3.13-4.67-9.07-7.82-15.9-7.82-10.08,0-18.25,6.87-18.25,15.35s8.17,15.35,18.25,15.35c7.88,0,14.57-4.2,17.13-10.08,3.12,4.67,9.07,7.82,15.9,7.82,10.07,0,18.25-6.87,18.25-15.35S276.58,97.28,266.51,97.28Z"/><path class="cls-4" d="M254.68,94c5.11,0,6.71,3.29,3.55,7.31l-2,2.57c-3.16,4-8.32,4-11.47,0l-2-2.57c-3.15-4-1.55-7.31,3.55-7.31Z"/></svg>