<svg id="Layer_1" data-name="Layer 1" xmlns="http://www.w3.org/2000/svg" viewBox="0 0 500 200"><defs><style>.cls-1{fill:#f7931e;stroke:#000;stroke-miterlimit:10;}.cls-2{fill:#191009;}.cls-3{fill:#f5f5f5;}.cls-4{fill:#434345;}.cls-5{fill:#a5541c;}.cls-6{fill:#fefefe;}.cls-7{fill:#fff;}.cls-8{fill:#883e10;}</style></defs><title>Artboard 1</title><rect class="cls-1" width="500" height="200"/><path class="cls-2" d="M251.33,128.05c-30.89,0-55.93,32.21-55.93,71.95H307.26c0-27.32-11.84-51.08-29.27-63.26A46.27,46.27,0,0,0,251.33,128.05Z"/><polyline class="cls-3" points="225.68 132.68 251.33 200 278.9 134.16"/><polygon class="cls-4" points="226.72 134.16 251.33 200 277.83 136.63 294.28 140.9 279.29 160.32 288.05 164.03 251.33 200 223.58 172.5 230.44 164.03 213.57 143.29 226.72 134.16"/><path class="cls-5" d="M267.21,52.92H230.36c-5.58,0-18.7,8.1-18.7,20.66s2.23,29.86,11.16,41.31-3.34,28.47,26,28.47,17-17,26-28.47,11.17-28.75,11.17-41.31S272.79,52.92,267.21,52.92Z"/><path class="cls-6" d="M245.75,57.74s-.37,26.79-7.81,38.33-22.7,40.94-8.56,45,15.63-10.79,20.47-10.79,7.72,12.57,22.33,9.68c12.18-2.42,4.3-25.76-8.52-43.39-11.61-16-10.09-38.86-10.09-38.86Z"/><path d="M285.05,74.43a.4.4,0,0,0-.34-.42,3.84,3.84,0,0,0-.46-.11c-2.21-.35-4.42-.69-6.65-.84-1.79-.13-3.57-.2-5.36-.28a60,60,0,0,0-10.29.35,33.34,33.34,0,0,0-6.17,1.29c-1,.33-2,.71-3,1a9.93,9.93,0,0,1-4.86.43A24.8,24.8,0,0,1,245,75.1a40.45,40.45,0,0,0-5.28-1.45,53.62,53.62,0,0,0-10.33-.91,63.82,63.82,0,0,0-7.49.38c-2,.24-3.93.5-5.9.77a10,10,0,0,0-1.23.29.43.43,0,0,0-.37.44c-.05,1.16-.09,2.32-.11,3.49a2.31,2.31,0,0,0,.06.52.38.38,0,0,0,.25.31,2.93,2.93,0,0,1,.43.23A3.48,3.48,0,0,1,216.2,81c.17.5.29,1,.43,1.54.09.32.22.64.29,1,.34,1.51.66,3,1,4.55a17.58,17.58,0,0,0,1.46,4.18,6.77,6.77,0,0,0,3.43,3.26,13.06,13.06,0,0,0,2.94.8,24.14,24.14,0,0,0,5.44.19,24.42,24.42,0,0,0,5.44-.95,10,10,0,0,0,3.62-1.85,16.72,16.72,0,0,0,3.91-4.89,32.68,32.68,0,0,0,2.32-5.88c.19-.58.36-1.16.56-1.73a2.2,2.2,0,0,1,1.81-1.49,5,5,0,0,1,.87,0,2.26,2.26,0,0,1,1.76.74,4.45,4.45,0,0,1,.5.8c.24.55.47,1.12.66,1.7A34.54,34.54,0,0,0,255.79,90a11.53,11.53,0,0,0,4.46,4.44,14.92,14.92,0,0,0,4.31,1.5,29.28,29.28,0,0,0,6.87.45,16.85,16.85,0,0,0,4.11-.64A6.66,6.66,0,0,0,279,93.54a10,10,0,0,0,1.38-2.44,36,36,0,0,0,1.67-5.66c.21-.94.43-1.88.67-2.82.11-.49.27-1,.4-1.46a3.93,3.93,0,0,1,.53-1.31,2.35,2.35,0,0,1,1.06-1,.55.55,0,0,0,.37-.42,2.42,2.42,0,0,0,.07-.47c0-.69,0-1.38,0-2.08,0-.5-.07-1-.1-1.49m-67.84,2.2c-.75,0-1.36-.15-1.36-.34s.61-.33,1.36-.33,1.36.15,1.36.33-.61.34-1.36.34M243.48,84a20.53,20.53,0,0,1-2.32,5.73,11.85,11.85,0,0,1-2,2.68,8.58,8.58,0,0,1-3.84,2,21.85,21.85,0,0,1-8.85.5,17.46,17.46,0,0,1-1.74-.39,4.62,4.62,0,0,1-2.77-2,11.09,11.09,0,0,1-1.53-3.67,39.28,39.28,0,0,1-.8-5.18,13.86,13.86,0,0,1,0-3c.07-.51.1-1,.22-1.52a4.21,4.21,0,0,1,3.25-3.34A27.65,27.65,0,0,1,228,75c1.22-.1,2.45-.15,3.23-.2a35.25,35.25,0,0,1,7.49.75,11.25,11.25,0,0,1,2.78.88,7.24,7.24,0,0,1,1.21.8,3.16,3.16,0,0,1,1.06,2,12.17,12.17,0,0,1-.25,4.77m36.34-.75a21.52,21.52,0,0,1-1.35,7.14,6.55,6.55,0,0,1-1.55,2.48,6.24,6.24,0,0,1-2.87,1.49,15.93,15.93,0,0,1-4.07.45,28.26,28.26,0,0,1-6.15-.67A8.22,8.22,0,0,1,259,91a17,17,0,0,1-3.27-6.89,14.26,14.26,0,0,1-.47-3.56,10.19,10.19,0,0,1,.16-1.56,3.38,3.38,0,0,1,2.2-2.6,21.22,21.22,0,0,1,3.69-1,33.17,33.17,0,0,1,4.22-.57c1.11-.07,2.22-.11,3-.14a35.62,35.62,0,0,1,8.09,1.09,8.31,8.31,0,0,1,1.35.55,2,2,0,0,1,.95.92c.22.46.46.92.64,1.39a5.48,5.48,0,0,1,.28,1.75c0,.94.08,1.88.06,2.82m2.34-6.59c-.75,0-1.36-.15-1.36-.34s.61-.33,1.36-.33,1.36.15,1.36.33-.61.34-1.36.34"/><path class="cls-7" d="M276.2,78.86s-13-3.77-12.71,9.46c0,0,12.71,4.62,12.71-9.46"/><path class="cls-2" d="M265.57,83a3.16,3.16,0,1,0,3.16-3.15A3.17,3.17,0,0,0,265.57,83Z"/><path class="cls-7" d="M267.25,82.67a.74.74,0,1,0,.74-.74A.74.74,0,0,0,267.25,82.67Z"/><path class="cls-7" d="M225.63,78.86s13-3.77,12.72,9.46c0,0-12.72,4.62-12.72-9.46"/><path class="cls-2" d="M236.26,83a3.16,3.16,0,1,1-3.16-3.15A3.16,3.16,0,0,1,236.26,83Z"/><path class="cls-7" d="M234.58,82.67a.74.74,0,1,1-.74-.74A.74.74,0,0,1,234.58,82.67Z"/><path class="cls-8" d="M225.87,54.3S191,65.06,192.81,93.44s8.78,43,18.33,43.17,14.26-8.25,11.73-34A161.21,161.21,0,0,1,225.87,54.3Z"/><path class="cls-8" d="M272.39,54.3s34.85,10.76,33.06,39.14-8.78,43-18.33,43.17-10.21-8.51-7.68-34.26S272.39,54.3,272.39,54.3Z"/><path class="cls-2" d="M254.45,119.31c4.31,0,5.65,2.77,3,6.16l-1.7,2.17a5.88,5.88,0,0,1-9.67,0l-1.69-2.17c-2.66-3.39-1.31-6.16,3-6.16Z"/><path class="cls-2" d="M250.92,130.24s-6.51-.83-8.47,3.81-6.93,9.58-10,7.84c-4.38-2.5-2.5-7.84,1.6-9.09-2.85-2.85-10.69,4.31-4.72,9.95,6.26,5.92,18.54-.33,21.57-6.83Z"/><path class="cls-2" d="M250.92,130.24s6.5-.83,8.46,3.81,6.93,9.58,10,7.84c4.39-2.5,2.5-7.84-1.6-9.09,2.85-2.85,10.7,4.31,4.72,9.95-6.25,5.92-18.53-.33-21.56-6.83Z"/><path d="M287.93,46.12C286.46,29.87,270.65,40,270.65,40V24.89c0-16.1-17.77-7-19.62-7s-19.61-9.08-19.61,7V40s-15.82-10.1-17.28,6.15,14.79,16.4,14.79,16.4h44.21S289.39,62.37,287.93,46.12Z"/><path class="cls-7" d="M270.65,40s-2,6-19.62,6-19.61-6-19.61-6-3.94,4.47-1.32,8.64C233.32,53.73,242,55.2,251,55.2s17.72-1.47,20.94-6.59C274.59,44.44,270.65,40,270.65,40Z"/></svg>