<svg id="Layer_1" data-name="Layer 1" xmlns="http://www.w3.org/2000/svg" viewBox="0 0 500 200"><defs><style>.cls-1{fill:#f15a24;}.cls-2{fill:#fbbdb0;}.cls-3{fill:#d76c79;}.cls-4{fill:#fff;}.cls-5{fill:#191009;}.cls-6{fill:#3c3c3b;}.cls-7{fill:#26232c;}</style></defs><title>Artboard 6</title><rect class="cls-1" width="500" height="200"/><path class="cls-2" d="M252.44,112.35c-40.26,0-72.9,39-72.9,87H325.35C325.35,151.31,292.71,112.35,252.44,112.35Z"/><path class="cls-2" d="M146.28,29.59s39.68-18,52.79,2.47l17.5,27.31s-42.31,13.87-55.42-6.57Z"/><path class="cls-3" d="M158.73,34.87s25.62-11.61,34.08,1.59l11.3,17.63s-27.32,9-35.78-4.24Z"/><path class="cls-2" d="M363.09,33.36s-38.5-20.38-52.83-.77L291.12,58.78s41.38,16.43,55.71-3.17Z"/><path class="cls-3" d="M350.34,37.86s-24.86-13.15-34.11-.49L303.87,54.28s26.72,10.6,36-2.05Z"/><path class="cls-2" d="M307.21,63.12a30.67,30.67,0,0,0,.48-5.08c0-22.39-24.73-40.53-55.25-40.53S197.19,35.65,197.19,58a29.63,29.63,0,0,0,.48,5.08c-6.49,7.52-10.31,16.43-10.31,26,0,26.67,29.14,48.29,65.08,48.29s65.07-21.62,65.07-48.29C317.51,79.55,313.7,70.64,307.21,63.12Z"/><path class="cls-4" d="M284,59.18S267.76,54.47,268.13,71c0,0,15.87,5.76,15.87-11.81"/><path class="cls-5" d="M270.73,64.3a3.94,3.94,0,1,0,3.94-3.94A3.94,3.94,0,0,0,270.73,64.3Z"/><path class="cls-4" d="M272.82,63.94a.93.93,0,1,0,.92-.93A.92.92,0,0,0,272.82,63.94Z"/><path class="cls-4" d="M220.88,59.18S237.12,54.47,236.76,71c0,0-15.88,5.76-15.88-11.81"/><path class="cls-5" d="M234.15,64.3a3.94,3.94,0,1,1-3.94-3.94A3.94,3.94,0,0,1,234.15,64.3Z"/><path class="cls-4" d="M232.06,63.94a.93.93,0,0,1-1.85,0,.93.93,0,1,1,1.85,0Z"/><path class="cls-3" d="M252.44,111.34c-11.63,0-20.75-6-20.75-13.68S240.81,84,252.44,84s20.75,6,20.75,13.68S264.07,111.34,252.44,111.34Z"/><path class="cls-6" d="M247.42,96.82a3.91,3.91,0,1,1-3.91-3.91A3.91,3.91,0,0,1,247.42,96.82Z"/><path class="cls-6" d="M264.46,96.82a3.91,3.91,0,1,1-3.91-3.91A3.91,3.91,0,0,1,264.46,96.82Z"/><path class="cls-7" d="M252.25,106.34s-7.46-3.56-14.57,0-13.69,9.77-17.78,1.24c0,0-.17,13.33,16.18,11.73S253,108.47,252.25,106.34Z"/><path class="cls-7" d="M252.63,106.34s7.46-3.56,14.57,0,13.69,9.77,17.78,1.24c0,0,.17,13.33-16.18,11.73S251.91,108.47,252.63,106.34Z"/><path d="M273.82,132.81c-3-1-17.7,7.49-17.7,7.49a5,5,0,0,0-7.3,0s-14.77-8.94-17.58-7.29-2.91,19.12,0,20.85,17.85-7,17.85-7a5,5,0,0,0,6.75,0s15.44,9.07,17.85,7S276.78,133.79,273.82,132.81Z"/><path d="M302.07,50.9a.59.59,0,0,0-.47-.6c-.22,0-.43-.11-.65-.15-3.1-.48-6.21-1-9.34-1.18-2.51-.17-5-.28-7.53-.4a85.08,85.08,0,0,0-14.45.5A46.48,46.48,0,0,0,261,50.89c-1.43.46-2.83,1-4.26,1.45a14,14,0,0,1-6.83.59,32.79,32.79,0,0,1-4.11-1.1,59.26,59.26,0,0,0-7.41-2,76.13,76.13,0,0,0-14.51-1.28,90.23,90.23,0,0,0-10.52.54c-2.76.33-5.53.7-8.29,1.08a15.09,15.09,0,0,0-1.74.4.64.64,0,0,0-.51.63c-.06,1.63-.11,3.26-.16,4.89a4.54,4.54,0,0,0,.1.74.53.53,0,0,0,.34.44,3.18,3.18,0,0,1,.61.31,4.83,4.83,0,0,1,1.69,2.58c.25.71.41,1.45.62,2.17.12.45.29.89.4,1.35.48,2.13.92,4.27,1.41,6.39a24.92,24.92,0,0,0,2,5.87,9.48,9.48,0,0,0,4.83,4.57,17.36,17.36,0,0,0,4.12,1.13,33.74,33.74,0,0,0,7.65.27,35,35,0,0,0,7.64-1.34,14,14,0,0,0,5.08-2.6,23.29,23.29,0,0,0,5.49-6.86,46.88,46.88,0,0,0,3.26-8.25c.26-.81.5-1.63.79-2.43a3,3,0,0,1,2.53-2.1,5.54,5.54,0,0,1,1.22,0,3.12,3.12,0,0,1,2.47,1,5,5,0,0,1,.71,1.12,22.92,22.92,0,0,1,.92,2.38,49.69,49.69,0,0,0,4.43,10A16.13,16.13,0,0,0,267.24,79a21,21,0,0,0,6.06,2.12,41,41,0,0,0,9.64.62,23.44,23.44,0,0,0,5.77-.89,9.36,9.36,0,0,0,4.9-3.13,14.45,14.45,0,0,0,1.93-3.42,49.41,49.41,0,0,0,2.35-8q.45-2,.93-4c.17-.69.38-1.37.57-2a5.56,5.56,0,0,1,.74-1.84,3.3,3.3,0,0,1,1.5-1.34.78.78,0,0,0,.51-.59,3,3,0,0,0,.1-.66c0-1,0-2,0-2.93,0-.7-.1-1.39-.15-2.09M206.8,54c-1.05,0-1.91-.22-1.91-.48s.86-.47,1.91-.47,1.91.21,1.91.47-.85.48-1.91.48M243.69,64.3a28.82,28.82,0,0,1-3.25,8,16.58,16.58,0,0,1-2.89,3.77A12,12,0,0,1,232.16,79a30.85,30.85,0,0,1-12.43.71c-.82-.13-1.63-.34-2.44-.55a6.42,6.42,0,0,1-3.88-2.82,15.41,15.41,0,0,1-2.15-5.16,53.9,53.9,0,0,1-1.14-7.27,19.48,19.48,0,0,1,.06-4.25c.09-.71.15-1.43.31-2.13a5.91,5.91,0,0,1,4.56-4.69,38.69,38.69,0,0,1,6.85-1.12c1.71-.14,3.43-.22,4.54-.28A48.72,48.72,0,0,1,237,52.46a15.67,15.67,0,0,1,3.9,1.23,10.25,10.25,0,0,1,1.7,1.13A4.43,4.43,0,0,1,244,57.6a17,17,0,0,1-.35,6.7m51-1.06a30.43,30.43,0,0,1-1.89,10,9.38,9.38,0,0,1-2.19,3.49,8.77,8.77,0,0,1-4,2.08,22,22,0,0,1-5.72.64,39.23,39.23,0,0,1-8.64-.94,11.61,11.61,0,0,1-6.85-4.31,23.73,23.73,0,0,1-4.59-9.68,20.13,20.13,0,0,1-.66-5,13.45,13.45,0,0,1,.23-2.19,4.7,4.7,0,0,1,3.08-3.65,29.25,29.25,0,0,1,5.18-1.43,45.45,45.45,0,0,1,5.93-.81c1.55-.1,3.11-.14,4.17-.19a49.66,49.66,0,0,1,11.37,1.53,11.89,11.89,0,0,1,1.89.77,2.8,2.8,0,0,1,1.33,1.3c.32.64.64,1.28.9,1.95a7.58,7.58,0,0,1,.39,2.46c.05,1.32.12,2.64.09,4M298,54c-1,0-1.91-.22-1.91-.48S297,53,298,53s1.91.21,1.91.47-.86.48-1.91.48"/></svg>