<svg id="Layer_1" data-name="Layer 1" xmlns="http://www.w3.org/2000/svg" viewBox="0 0 500 200"><defs><style>.cls-1{fill:#1b1464;}.cls-2{fill:#fff;}.cls-3{fill:#b66916;}.cls-4{fill:#940d0a;}.cls-5{fill:#f6e9e5;}.cls-6{fill:#fbdd58;}.cls-7{fill:#191009;}.cls-8{fill:#26232c;}</style></defs><title>Artboard 8</title><rect class="cls-1" width="500" height="200"/><path class="cls-2" d="M303.87,148.17a54.75,54.75,0,0,0-5.2-11.82,55,55,0,0,1-5.73-13.55,90.35,90.35,0,0,1-3.12-19.86c0-.17,0-.34,0-.52,0-.78-.08-1.54-.12-2.3,0-.92,0-1.48,0-1.48l-.06.1a42.69,42.69,0,0,0-42.52-39h0a42.68,42.68,0,0,0-42.51,39l0,0s0,.12,0,.32c-.09,1.15-.18,2.29-.18,3.46,0,.36,0,.71,0,1.07a92.59,92.59,0,0,1-2.75,18.11,55.56,55.56,0,0,1-6.08,14.75,54.08,54.08,0,0,0-5,11.14c-5.14,15.45-5.15,32.84-5.15,32.84a61.42,61.42,0,0,0,3.83,19.95H305a61.86,61.86,0,0,0,3.84-20S308.76,163.43,303.87,148.17Z"/><path class="cls-3" d="M311.57,163.25v0a.65.65,0,0,1,.12.11.5.5,0,0,1,.12.08c-.07-.06-.16-.1-.23-.16"/><path class="cls-4" d="M252.65,13.28A79.78,79.78,0,0,1,257,28.59c.47,2.32.94,3.65,1.47,5.84a47.46,47.46,0,0,1,1.06,8,42.33,42.33,0,0,1-3.33,18.27c-2.56,5.84-6.38,11.07-11.84,14.41-1-6.41-1.36-11.41-1.76-16s-.7-8.56-.86-13c-.1-2.21-.11-4.51-.05-7.28a34.09,34.09,0,0,1,1.43-9.65,38.13,38.13,0,0,1,9.55-16"/><path class="cls-5" d="M264.67,84.13a19,19,0,0,0-17.5,11l0-.05a19,19,0,0,0-17.48-11c-10.49,0-19,8.08-19,18.06s8.51,18,19,18c7.85,0,14.58,1.14,17.48-5.28l0,0c2.88,6.48,9.63,5.33,17.5,5.33,10.5,0,19-8.08,19-18S275.17,84.13,264.67,84.13Z"/><path class="cls-4" d="M239.23,117.34s-27.46,70-5.89,75.06,11.54-57.16,11-61"/><path class="cls-4" d="M255.05,117.34s27.46,70,5.89,75.06-11.54-57.16-11-61"/><path class="cls-6" d="M255.57,117.52l-4.85-2.35a9.26,9.26,0,0,0-7.11,0l-4.85,2.35c-1.95.94-2.58,2.91-1.37,4.39l7.59,9.33a2.83,2.83,0,0,0,2.19,1.1,2.79,2.79,0,0,0,2.17-1.1l7.6-9.33C258.14,120.43,257.52,118.46,255.57,117.52Z"/><path class="cls-2" d="M224.07,98.33s14.14-4.1,13.82,10.28c0,0-13.82,5-13.82-10.28"/><path class="cls-7" d="M234.77,103.6a3.43,3.43,0,1,1-3.43-3.43A3.44,3.44,0,0,1,234.77,103.6Z"/><path class="cls-2" d="M233.66,102a.8.8,0,1,1-.8-.8A.8.8,0,0,1,233.66,102Z"/><path class="cls-2" d="M272.64,98.33s-14.14-4.1-13.82,10.28c0,0,13.82,5,13.82-10.28"/><path class="cls-7" d="M261.09,103.6a3.43,3.43,0,1,0,3.43-3.43A3.43,3.43,0,0,0,261.09,103.6Z"/><path class="cls-2" d="M262.33,102.58a.8.8,0,1,0,1.6,0,.8.8,0,0,0-1.6,0Z"/><path class="cls-8" d="M288.47,92.68A5.77,5.77,0,0,0,286.76,91c-1.75-1.12-4.38-1.66-8.07-1.66a87,87,0,0,0-10.07.8l-2.12.25c-8.68,1-13.48,2.86-15.55,6.16a7.47,7.47,0,0,0-1.11,3.51,7.41,7.41,0,0,0-5.38.25,7.5,7.5,0,0,0-1.13-3.76c-2.07-3.3-6.86-5.2-15.55-6.16l-2.12-.25a87,87,0,0,0-10.06-.8c-.74,0-1.44,0-2.09.07-3.95.26-6.42,1.31-7.7,3.25a5.88,5.88,0,0,0-.81,3.89,12.45,12.45,0,0,0,1,3.61c5,11.58,11.41,17.17,20.1,17.62.35,0,.73,0,1.12,0h0c5.87,0,12.87-2.07,14.93-7.87l.06-.16a50.51,50.51,0,0,0,1.92-6.18,6.28,6.28,0,0,1,1.39-.79,4.59,4.59,0,0,1,4.54.4,47,47,0,0,0,2,6.57l.06.16c2.06,5.8,9.07,7.87,14.93,7.87.4,0,.77,0,1.12,0,8.69-.45,15.08-6,20.1-17.62a12,12,0,0,0,1-3.56,5.84,5.84,0,0,0-.8-3.94m-33.79,16.37-.06-.16a35.12,35.12,0,0,1-2-7l0,0s0,0,0,0a5.79,5.79,0,0,1,.64-3.79c1.55-2.46,6-4.07,13.55-4.91l2.14-.24a85.43,85.43,0,0,1,9.75-.79c4.07,0,6.6.71,7.51,2.1.69,1,.54,2.71-.42,4.93-4.63,10.67-10.1,15.6-17.75,16-.31,0-.63,0-1,0-1.7,0-10.32-.29-12.37-6.07m-15.08,0c-2,5.78-10.66,6.07-12.37,6.07-.34,0-.67,0-1,0-7.64-.39-13.12-5.32-17.75-16-1-2.22-1.1-3.88-.42-4.93.92-1.39,3.44-2.1,7.52-2.1a85.26,85.26,0,0,1,9.74.79l2.14.24c7.57.84,12,2.45,13.55,4.91s.22,6.41-1.37,10.88Z"/></svg>