<svg id="Layer_1" data-name="Layer 1" xmlns="http://www.w3.org/2000/svg" viewBox="0 0 500 200"><defs><style>.cls-1{fill:#29abe2;}.cls-2{fill:#a95d21;}.cls-3{fill:#f5c799;}.cls-4{fill:#26232c;}.cls-5{fill:#fff;}</style></defs><title>Artboard 7</title><rect class="cls-1" width="500" height="200"/><path class="cls-2" d="M239,132.55c-36,0-65.14,30.68-65.14,68.53H304.13C304.13,163.23,275,132.55,239,132.55Z"/><path class="cls-2" d="M328.46,73a22,22,0,1,1-22-22A22,22,0,0,1,328.46,73Z"/><path class="cls-3" d="M320.8,73a14.31,14.31,0,1,1-14.31-14.31A14.31,14.31,0,0,1,320.8,73Z"/><path class="cls-2" d="M193.54,73a22,22,0,1,1-22-22A22,22,0,0,1,193.54,73Z"/><path class="cls-3" d="M185.89,73a14.31,14.31,0,1,1-14.31-14.31A14.31,14.31,0,0,1,185.89,73Z"/><circle class="cls-2" cx="238.98" cy="83.59" r="61.82" transform="translate(-8.95 32.29) rotate(-7.59)"/><path class="cls-3" d="M293.52,79A27.7,27.7,0,0,0,239,72.14a27.7,27.7,0,1,0-26.81,34.58V121a27.71,27.71,0,1,0,55.42,0V106.63A27.69,27.69,0,0,0,293.52,79Z"/><path class="cls-4" d="M228.8,81.69A5.73,5.73,0,1,1,223.07,76,5.72,5.72,0,0,1,228.8,81.69Z"/><path class="cls-4" d="M260.63,81.69A5.73,5.73,0,1,1,254.9,76,5.72,5.72,0,0,1,260.63,81.69Z"/><path class="cls-5" d="M226.92,79.78A1.91,1.91,0,1,1,225,77.87,1.92,1.92,0,0,1,226.92,79.78Z"/><path class="cls-5" d="M258.72,79.78a1.91,1.91,0,1,1-1.91-1.91A1.92,1.92,0,0,1,258.72,79.78Z"/><path class="cls-2" d="M244.8,100.85c5.65,0,7.42,3.64,3.93,8.08l-2.24,2.84c-3.48,4.45-9.19,4.45-12.68,0l-2.23-2.84c-3.49-4.44-1.72-8.08,3.93-8.08Z"/><path class="cls-4" d="M239,107.26a3,3,0,1,1-3-3A3,3,0,0,1,239,107.26Z"/><path class="cls-4" d="M248.05,107.26a3,3,0,1,1-3-3A3,3,0,0,1,248.05,107.26Z"/><path class="cls-4" d="M240,116.17s-5-2.39-9.79,0-9.19,6.57-11.94.83c0,0-.12,9,10.87,7.88S240.51,117.6,240,116.17Z"/><path class="cls-4" d="M240.28,116.17s5-2.39,9.79,0,9.19,6.57,11.94.83c0,0,.12,9-10.87,7.88S239.8,117.6,240.28,116.17Z"/><path d="M291.46,66.54a.61.61,0,0,0-.5-.62,5.73,5.73,0,0,0-.69-.16c-3.28-.52-6.56-1-9.88-1.25-2.65-.19-5.29-.3-7.95-.42a89.67,89.67,0,0,0-15.28.52A51.09,51.09,0,0,0,248,66.53c-1.51.49-3,1.06-4.5,1.53a14.66,14.66,0,0,1-7.22.63,36.71,36.71,0,0,1-4.35-1.16,60.89,60.89,0,0,0-7.83-2.15A81,81,0,0,0,208.76,64a96.2,96.2,0,0,0-11.13.57c-2.92.35-5.84.74-8.76,1.14a16.74,16.74,0,0,0-1.83.43.66.66,0,0,0-.55.66c-.06,1.72-.12,3.45-.16,5.17a4.06,4.06,0,0,0,.1.78.57.57,0,0,0,.36.47,3.31,3.31,0,0,1,.65.33,5.12,5.12,0,0,1,1.78,2.73c.27.75.44,1.53.65,2.29.14.48.32,1,.43,1.43.5,2.24,1,4.51,1.49,6.76A25.78,25.78,0,0,0,194,93a10,10,0,0,0,5.1,4.83,18.8,18.8,0,0,0,4.36,1.2,35.81,35.81,0,0,0,8.08.28,37.59,37.59,0,0,0,8.08-1.41,14.61,14.61,0,0,0,5.37-2.76,24.46,24.46,0,0,0,5.81-7.25,50.38,50.38,0,0,0,3.45-8.72c.27-.86.52-1.73.83-2.57a3.23,3.23,0,0,1,2.68-2.22,6.17,6.17,0,0,1,1.29-.06,3.35,3.35,0,0,1,2.61,1.1,5.68,5.68,0,0,1,.75,1.19,24.73,24.73,0,0,1,1,2.52A51.71,51.71,0,0,0,248,89.69a17.11,17.11,0,0,0,6.62,6.59A21.91,21.91,0,0,0,261,98.51a43,43,0,0,0,10.2.67,25.18,25.18,0,0,0,6.1-1,10,10,0,0,0,5.18-3.31,14.85,14.85,0,0,0,2-3.62A53.39,53.39,0,0,0,287,82.89c.31-1.4.64-2.79,1-4.19.17-.72.4-1.44.6-2.16a5.7,5.7,0,0,1,.78-2A3.51,3.51,0,0,1,291,73.17a.81.81,0,0,0,.54-.62,3.4,3.4,0,0,0,.11-.7c0-1,0-2.06,0-3.09,0-.74-.1-1.48-.15-2.22M190.73,69.81c-1.11,0-2-.23-2-.5s.9-.5,2-.5,2,.22,2,.5-.9.5-2,.5m39,10.9a30.64,30.64,0,0,1-3.43,8.5,17.68,17.68,0,0,1-3.05,4,12.65,12.65,0,0,1-5.71,3A32.54,32.54,0,0,1,204.4,97c-.87-.13-1.72-.36-2.57-.57a6.89,6.89,0,0,1-4.11-3A16.24,16.24,0,0,1,195.44,88a57.16,57.16,0,0,1-1.19-7.69,20.42,20.42,0,0,1,.06-4.49,20.65,20.65,0,0,1,.32-2.25,6.28,6.28,0,0,1,4.82-5,41.41,41.41,0,0,1,7.24-1.18c1.81-.15,3.63-.23,4.8-.3a51.43,51.43,0,0,1,11.12,1.12,16,16,0,0,1,4.12,1.3,10.2,10.2,0,0,1,1.8,1.19,4.63,4.63,0,0,1,1.57,2.93,17.65,17.65,0,0,1-.37,7.09m54-1.11a31.71,31.71,0,0,1-2,10.59,9.83,9.83,0,0,1-2.3,3.7,9.4,9.4,0,0,1-4.26,2.19,23.66,23.66,0,0,1-6.05.69,41.71,41.71,0,0,1-9.12-1,12.32,12.32,0,0,1-7.26-4.56A25.09,25.09,0,0,1,247.86,81a20.47,20.47,0,0,1-.7-5.28,15,15,0,0,1,.24-2.32,5,5,0,0,1,3.26-3.85A30.62,30.62,0,0,1,256.13,68a47.46,47.46,0,0,1,6.27-.85c1.65-.11,3.3-.15,4.41-.2a52.27,52.27,0,0,1,12,1.61,12.36,12.36,0,0,1,2,.82,3,3,0,0,1,1.41,1.37c.33.68.68,1.36.95,2.07a8.07,8.07,0,0,1,.41,2.59c.06,1.4.13,2.79.09,4.19m3.49-9.79c-1.12,0-2-.23-2-.5s.9-.5,2-.5,2,.22,2,.5-.9.5-2,.5"/></svg>