<svg xmlns="http://www.w3.org/2000/svg" xmlns:xlink="http://www.w3.org/1999/xlink" viewBox="0 0 500 200"><defs><style>.cls-1{fill:none;}.cls-2{isolation:isolate;}.cls-3{fill:#0071bc;}.cls-4{fill:#f25a28;}.cls-5{fill:#f5fefb;}.cls-6{fill:#f6f3cf;}.cls-7{fill:#251f21;}.cls-8{fill:#e96332;}.cls-9{fill:#07171b;}.cls-10{fill:#a84720;}.cls-11{fill:#191009;}.cls-12{fill:#fff;}.cls-13{opacity:0.5;mix-blend-mode:screen;}.cls-14{clip-path:url(#clip-path);}.cls-15{fill:#e6e6e6;}.cls-16{clip-path:url(#clip-path-2);}.cls-17{clip-path:url(#clip-path-3);}.cls-18{clip-path:url(#clip-path-4);}.cls-19{fill:#351905;}</style><clipPath id="clip-path"><rect id="SVGID" class="cls-1" x="205.76" y="88.56" width="14.26" height="35.9"/></clipPath><clipPath id="clip-path-2"><rect id="SVGID-2" data-name="SVGID" class="cls-1" x="257.17" y="85.98" width="14.72" height="37.96"/></clipPath><clipPath id="clip-path-3"><rect id="SVGID-3" data-name="SVGID" class="cls-1" x="199.95" y="90.79" width="12.11" height="32.87"/></clipPath><clipPath id="clip-path-4"><rect id="SVGID-4" data-name="SVGID" class="cls-1" x="249.01" y="86.59" width="14.08" height="34.78"/></clipPath></defs><title>Artboard 2</title><g class="cls-2"><g id="Layer_1" data-name="Layer 1"><rect class="cls-3" width="500" height="200"/><path class="cls-4" d="M245.29,130c-28.3,0-51.24,31-51.24,69.14H296.53C296.53,161,273.59,130,245.29,130Z"/><path class="cls-5" d="M231.63,149.76c4.07,8.5,16.4,18,26.74,0-.63-7.74-8.22-9.69-13.09-9.69C235.88,140.07,231.63,149.76,231.63,149.76Z"/><path class="cls-6" d="M308.21,124.44a15,15,0,0,0-2.94-1.58l.88.52A18,18,0,0,1,308.21,124.44Z"/><path class="cls-6" d="M308.21,124.44a18,18,0,0,0-2.06-1.06A19.3,19.3,0,0,0,308.21,124.44Z"/><path class="cls-6" d="M185.22,122.86a15,15,0,0,0-2.94,1.58,17.17,17.17,0,0,1,2.06-1.06Z"/><path class="cls-6" d="M182.28,124.44a20.52,20.52,0,0,0,2.06-1.06A17.17,17.17,0,0,0,182.28,124.44Z"/><path class="cls-7" d="M264.07,67.32c9.72-39.41,41.77-53.2,41.77-53.2S328.75,73.92,285,88.18Z"/><path class="cls-4" d="M268.75,70.94c12.52-37.43,32.56-44,32.56-44s17.33,35.75-20.73,57.55Z"/><path class="cls-7" d="M226.37,67.32c-9.72-39.41-41.77-53.2-41.77-53.2s-22.91,59.8,20.88,74.06Z"/><path class="cls-4" d="M221.69,70.94c-12.51-37.43-32.56-44-32.56-44S171.8,62.73,209.86,84.53Z"/><path class="cls-5" d="M258.37,149.76a14.26,14.26,0,0,0-6.33-7.07c2.34-3.8,10.16-13.88,27.73-19.74,13-4.33,24.12-1.6,28.41,1.49C308.18,124.44,295.08,141.16,258.37,149.76Z"/><path class="cls-5" d="M232.07,149.76a14.26,14.26,0,0,1,6.33-7.07c-2.34-3.8-10.16-13.88-27.73-19.74-13-4.33-24.12-1.6-28.42,1.49C182.25,124.44,195.36,141.16,232.07,149.76Z"/><path class="cls-4" d="M293.29,107.18c0-.62.1-1.22.1-1.85a48.21,48.21,0,0,0-48.12-48.21h-.1a48.21,48.21,0,0,0-48.12,48.21c0,.63.07,1.23.1,1.85-2.24,9.1-9.3,14.17-12.83,16.2,5.5-2.4,14.71-3.45,26.35-.43,13.5,3.5,25.39,14.81,27.73,19.74a13.62,13.62,0,0,1,13.64,0c2.34-4.93,14.23-16.24,27.73-19.74,11.64-3,20.85-2,26.35.43C302.59,121.35,295.53,116.28,293.29,107.18Z"/><path class="cls-4" d="M306.12,123.38a20.52,20.52,0,0,0,2.06,1.06A17.17,17.17,0,0,0,306.12,123.38Z"/><path class="cls-4" d="M184.32,123.38a18.13,18.13,0,0,0-2.07,1.06A19.9,19.9,0,0,0,184.32,123.38Z"/><path class="cls-1" d="M210.69,123a64.45,64.45,0,0,1,11.93,5.33,1.13,1.13,0,0,0,0-.18A46.31,46.31,0,0,0,210.69,123Z"/><path class="cls-8" d="M245.2,57.12Z"/><path class="cls-9" d="M238.4,142.65h0l0,0Z"/><path class="cls-10" d="M245.29,57.12h0Z"/><path class="cls-10" d="M245.29,99.23V57.12h-.09V99.24Z"/><path class="cls-10" d="M245.2,140.85h.09V99.23h-.09v41.61Z"/><path class="cls-10" d="M238.4,142.65l0,0a14.16,14.16,0,0,1,6.78-1.83h0A14.1,14.1,0,0,0,238.4,142.65Z"/><path class="cls-10" d="M245.2,140.85h0Z"/><path class="cls-11" d="M249.11,133.19c4.79,0,6.29,3.08,3.33,6.85l-1.89,2.41c-3,3.77-7.8,3.77-10.75,0L237.9,140c-3-3.77-1.45-6.85,3.33-6.85Z"/><path class="cls-11" d="M230.49,149s8.3,2.6,14.49-3.71c5.45,4.33,8.92,5.61,14.87,2.12-6.07,6.67-12.93,4.6-15,4.1C240.11,152.74,231.73,152.46,230.49,149Z"/><path class="cls-12" d="M217.52,98.13s16-4.64,15.64,11.63c0,0-15.64,5.68-15.64-11.63"/><path class="cls-11" d="M230.25,103.18a3.88,3.88,0,1,1-3.88-3.89A3.88,3.88,0,0,1,230.25,103.18Z"/><path class="cls-12" d="M229,101.71a.91.91,0,1,1-.91-.91A.91.91,0,0,1,229,101.71Z"/><path class="cls-12" d="M272.48,98.13s-16-4.64-15.64,11.63c0,0,15.64,5.68,15.64-11.63"/><path class="cls-11" d="M259.4,103.18a3.89,3.89,0,1,0,3.89-3.89A3.89,3.89,0,0,0,259.4,103.18Z"/><path class="cls-12" d="M260.56,101.35a.91.91,0,1,0,.91-.91A.92.92,0,0,0,260.56,101.35Z"/><path d="M264.27,158.47c-2.66-.89-16,6.75-16,6.75a4.54,4.54,0,0,0-6.58,0s-13.31-8.06-15.84-6.57-2.63,17.24,0,18.8S242,171.12,242,171.12a4.53,4.53,0,0,0,6.08,0s13.92,8.17,16.1,6.33S266.94,159.35,264.27,158.47Z"/><g class="cls-13"><g class="cls-14"><polygon class="cls-15" points="205.76 89.99 215.78 124.29 220.01 124.46 209.19 88.56 205.76 89.99"/></g></g><g class="cls-13"><g class="cls-16"><polygon class="cls-15" points="257.17 86.33 267.88 123.72 271.89 123.94 261.07 85.98 257.17 86.33"/></g></g><g class="cls-13"><g class="cls-17"><path class="cls-15" d="M202.15,90.79h0c.09,1.56-1,2.67-1.77,4.11a2.1,2.1,0,0,1-.42.56v1.88l6.55,23.5c1.39.65,1.5,1.16,2.92,1.78.86.38,1.75.7,2.64,1Z"/></g></g><g class="cls-13"><g class="cls-18"><polygon class="cls-15" points="249.01 87.88 259.23 119.31 263.1 121.37 253.05 86.59 249.01 87.88"/></g></g><path class="cls-19" d="M293.68,99.85c-.33-.42-.9-.33-1.18-1.37s-2.95-8.12-5.89-9.74-8.58-4.36-22.25-5.32c-10.58-.26-17-.48-18.8-.54v0H245v0c-1.82.06-8.22.28-18.8.54-13.67,1-19.31,3.71-22.25,5.32s-5.6,8.69-5.88,9.74-.86,1-1.19,1.37,0,2.94,1.09,4.56a30.79,30.79,0,0,0,7.31,17c2.38,2.75,8.93,4.08,13.49,3.89,10.06-1.71,11.77-4.75,16.14-9s7.82-16,8.33-17.28a2.7,2.7,0,0,1,2-1.47,2.73,2.73,0,0,1,2,1.47c.51,1.33,4,13,8.32,17.28s6.08,7.31,16.15,9c4.56.19,11.11-1.14,13.48-3.89a30.72,30.72,0,0,0,7.31-17c1.05-1.62,1.43-4.13,1.09-4.56M240,101.56c-.77,3.42-3.43,10.35-6.47,13.68s-5,6.31-12.69,8c-4.4.57-10.95.1-14-3.51s-6.07-9.33-6.07-14.78a47.9,47.9,0,0,1,.37-7.44s1.81-6.17,6.56-8.17S220,86,228.28,86.56s11,1.9,11.69,3.7.75,7.88,0,11.3m43.79,18.14c-3,3.61-9.59,4.08-14,3.51-7.67-1.66-9.65-4.65-12.69-8s-5.7-10.26-6.46-13.68-.66-9.49,0-11.3,3.42-3.13,11.68-3.7,15.86.76,20.61,2.75,6.55,8.17,6.55,8.17a46.66,46.66,0,0,1,.38,7.44c0,5.45-3,11.17-6.08,14.78"/></g></g></svg>