<svg id="Layer_1" data-name="Layer 1" xmlns="http://www.w3.org/2000/svg" viewBox="0 0 500 200"><defs><style>.cls-1{fill:#ed1e79;}.cls-2{fill:#f7eada;}.cls-3{fill:#a7654f;}.cls-4{fill:#fff;}.cls-5{fill:#191009;}.cls-6{fill:#26232c;}</style></defs><title>Artboard 5</title><rect class="cls-1" width="500" height="200.59"/><path class="cls-2" d="M307.84,126c0-41.25-26.26-74.69-58.66-74.69S190.51,84.7,190.51,126s26.27,74.7,58.67,74.7S307.84,167.2,307.84,126Z"/><path class="cls-3" d="M287.15,74.29c0-19.86-32.39-23.34-32.39-23.34H243.61s-32.4,3.48-32.4,23.34-.35,43.55,9.4,61,8.36,41.8,28.57,43.2c20.2-1.4,18.81-25.78,28.57-43.2S287.15,94.15,287.15,74.29Z"/><path class="cls-4" d="M272.91,39.74s27.25-6.21,25.16-27.11c9.06,18.46-4.53,32.75-16,41.11"/><path class="cls-4" d="M225.26,39.74S198,33.53,200.1,12.63c-9,18.46,4.53,32.75,16,41.11"/><path class="cls-3" d="M278.76,59.72s13.75-17.24,35.88-12.54C311.85,58.5,304.53,69,286.77,73.13"/><path class="cls-2" d="M282.26,64s14.2-12.59,25.58-10.17c-1.43,5.83-12.86,16.26-22,18.41"/><path class="cls-3" d="M219.27,59.72s-13.76-17.24-35.88-12.54c2.79,11.32,10.1,21.77,27.87,25.95"/><path class="cls-2" d="M215.77,64S201.56,51.38,190.18,53.8c1.44,5.83,12.87,16.26,22,18.41"/><path class="cls-4" d="M259.63,120.8c0-17.42.52-34,15.15-48.34s10.28-25.34,1.75-32.92-21.08-6.27-27.35-6.27S230.37,32,221.83,39.54s-12.89,18.55,1.74,32.92,15.16,30.92,15.16,48.34c0,13.45-8.71,21.25-14.11,27.34s-2.35,18.12,3.92,18.12h41.28c6.27,0,9.32-12,3.92-18.12S259.63,134.25,259.63,120.8Z"/><path class="cls-4" d="M282.48,85.77S267.06,81.3,267.41,97c0,0,15.07,5.48,15.07-11.2"/><path class="cls-5" d="M269.88,90.63a3.74,3.74,0,1,0,3.74-3.74A3.75,3.75,0,0,0,269.88,90.63Z"/><path class="cls-4" d="M271.87,90.28a.88.88,0,1,0,.87-.87A.87.87,0,0,0,271.87,90.28Z"/><path class="cls-4" d="M215.31,85.77S230.72,81.3,230.37,97c0,0-15.06,5.48-15.06-11.2"/><path class="cls-5" d="M227.9,90.63a3.74,3.74,0,1,1-3.74-3.74A3.74,3.74,0,0,1,227.9,90.63Z"/><path class="cls-4" d="M225.92,90.28a.88.88,0,1,1-.88-.87A.88.88,0,0,1,225.92,90.28Z"/><path class="cls-6" d="M248.48,166s-6.86-3.27-13.39,0-12.57,9-16.33,1.14c0,0-.16,12.25,14.86,10.77S249.13,167.9,248.48,166Z"/><path class="cls-6" d="M248.82,166s6.86-3.27,13.39,0,12.57,9,16.33,1.14c0,0,.16,12.25-14.87,10.77S248.16,167.9,248.82,166Z"/></svg>