<?xml version="1.0" encoding="UTF-8"?>
<!DOCTYPE svg PUBLIC "-//W3C//DTD SVG 1.1//EN" "http://www.w3.org/Graphics/SVG/1.1/DTD/svg11.dtd">
<!-- Creator: CorelDRAW X6 -->
<svg xmlns="http://www.w3.org/2000/svg" xml:space="preserve" width="3.98611in" height="4.94444in" version="1.1" style="shape-rendering:geometricPrecision; text-rendering:geometricPrecision; image-rendering:optimizeQuality; fill-rule:evenodd; clip-rule:evenodd"
viewBox="0 0 3986 4944"
 xmlns:xlink="http://www.w3.org/1999/xlink">
 <defs>
  <style type="text/css">
   <![CDATA[
    .str0 {stroke:#282828;stroke-width:69.4449}
    .str1 {stroke:#282828;stroke-width:69.4449;stroke-linecap:round}
    .fil0 {fill:none;fill-rule:nonzero}
    .fil1 {fill:#282828;fill-rule:nonzero}
   ]]>
  </style>
 </defs>
 <g id="Layer_x0020_1">
  <metadata id="CorelCorpID_0Corel-Layer"/>
  <path class="fil0 str0" d="M3526 2818c0,-964 -782,-1746 -1746,-1746 -964,0 -1746,782 -1746,1746 0,964 782,1746 1746,1746 964,0 1746,-782 1746,-1746z"/>
  <path class="fil0 str1" d="M1791 28c-148,-1 -309,10 -475,35 -685,102 -1209,394 -1171,652 32,215 444,339 976,315"/>
  <path class="fil0 str1" d="M3957 67c-148,-1 -309,10 -475,35 -685,102 -1209,394 -1171,652 32,215 444,339 976,315"/>
  <line class="fil0 str1" x1="1314" y1="4501" x2="1193" y2= "4908" />
  <line class="fil0 str1" x1="2254" y1="4500" x2="2364" y2= "4910" />
  <path class="fil1" d="M1751 2493c0,0 109,-3 191,41 82,44 149,114 149,114 0,0 56,68 94,174 38,106 73,165 73,165 0,0 73,142 140,194l132 109c0,0 90,67 113,88 23,21 82,68 115,161 33,94 30,125 30,125 0,0 11,122 -24,189 0,0 -43,124 -84,155 0,0 -58,71 -150,102 -92,30 -197,33 -197,33 0,0 -287,-31 -324,-43 -36,-12 -286,-36 -365,-20 -79,16 -120,10 -233,36 -113,26 -199,33 -199,33 0,0 -121,12 -226,-36 -105,-49 -132,-89 -132,-89 0,0 -59,-34 -113,-178 0,0 -18,-15 -23,-109 -4,-94 13,-147 13,-147 0,0 23,-109 92,-174 69,-65 229,-182 229,-182 0,0 118,-101 126,-130 0,0 105,-142 116,-213 11,-70 99,-215 99,-215 0,0 48,-71 97,-97 0,0 57,-43 110,-55 0,0 67,-30 150,-30z"/>
  <path class="fil1" d="M2922 2287c0,0 -97,-30 -236,148 -139,177 -160,359 -160,359 0,0 -3,132 66,208 69,76 99,82 99,82 0,0 87,54 179,35 92,-19 165,-73 165,-73 0,0 94,-52 111,-208 17,-156 -33,-302 -33,-302 0,0 -49,-219 -191,-248z"/>
  <path class="fil1" d="M534 2294c0,0 -101,13 -155,231 -54,218 1,393 1,393 0,0 51,122 145,163 95,41 124,34 124,34 0,0 101,14 177,-41 76,-55 121,-134 121,-134 0,0 64,-86 16,-236 -48,-150 -154,-262 -154,-262 0,0 -134,-180 -276,-148z"/>
  <path class="fil1" d="M1330 1424c0,0 -116,-22 -254,201 -138,222 -138,435 -138,435 0,0 13,153 103,232 90,79 125,81 125,81 0,0 107,51 211,17 104,-34 181,-105 181,-105 0,0 102,-72 102,-255 0,-183 -77,-345 -77,-345 0,0 -84,-246 -252,-262z"/>
  <path class="fil1" d="M2212 1438c0,0 -116,-22 -254,201 -138,222 -138,435 -138,435 0,0 13,153 103,232 90,79 125,81 125,81 0,0 107,51 211,17 104,-34 181,-105 181,-105 0,0 102,-72 102,-255 0,-183 -77,-345 -77,-345 0,0 -84,-246 -252,-262z"/>
 </g>
</svg>
